<?xml version="1.0" standalone="no"?>
<!DOCTYPE svg PUBLIC "-//W3C//DTD SVG 1.1//EN" "http://www.w3.org/Graphics/SVG/1.1/DTD/svg11.dtd" >
<svg xmlns="http://www.w3.org/2000/svg">
<metadata>
This is a custom SVG webfont generated by Font Squirrel.
</metadata>
<defs>
<font id="QuoteRegular" horiz-adv-x="917" >
<font-face units-per-em="2048" ascent="1536" descent="-512" />
<missing-glyph horiz-adv-x="481" />
<glyph unicode=" "  horiz-adv-x="481" />
<glyph unicode="&#x09;" horiz-adv-x="481" />
<glyph unicode="&#xa0;" horiz-adv-x="481" />
<glyph unicode="!" horiz-adv-x="362" d="M80 549.5q2 23.5 2 44.5v160v403v143q0 37 12 73t45 57q29 16 58.5 6.5t50.5 -33.5q25 -29 29 -62.5t4 -66.5v-342v-350q0 -29 -2.5 -56.5t-14.5 -56.5t-38.5 -50.5t-59.5 -12.5q-35 8 -55.5 35.5t-28.5 60.5q-4 24 -2 47.5zM82 154q0 41 21.5 66.5t58.5 35.5 q35 8 67.5 -12.5t44.5 -53.5q12 -35 -2 -68.5t-47 -53.5q-33 -16 -67.5 -9t-55.5 35q-20 21 -20 60z" />
<glyph unicode="&#x22;" horiz-adv-x="733" d="M32 1098.5q1 15.5 6 29t7 21.5l123 270q0 10 10 28.5t26.5 34t40 21.5t52.5 -8q35 -16 47 -36.5t10 -41t-12 -39t-18 -30.5l-142 -236q-4 -10 -15 -26.5t-27.5 -29t-37 -18.5t-41.5 6q-18 8 -24 23.5t-5 31zM337 1098.5q1 15.5 6 29t7 21.5l123 270q0 10 10.5 28.5 t26.5 34t39.5 21.5t52.5 -8q35 -16 47.5 -36.5t10 -41t-12.5 -39t-18 -30.5l-142 -236q-4 -10 -15 -26.5t-27.5 -29t-37 -18.5t-40.5 6q-18 8 -24.5 23.5t-5.5 31z" />
<glyph unicode="$" horiz-adv-x="1028" d="M87 224q-7 38 17 71q25 33 64 39t70 -19q16 -12 44 -27l64 -36q12 -8 29 -16l31.5 -13.5t39.5 -13.5q4 0 10.5 3t6.5 24v417q0 4 -6 11l-4 4q-37 18 -83 47.5t-90 70.5t-80 92.5t-53 110.5q-6 27 -8 60.5t6.5 72.5t29 82t58.5 90q92 98 213 123q12 4 14.5 11.5t2.5 11.5 v47q0 47 23.5 83t56.5 36t54 -36t21 -83v-53q0 -16 7 -23l10 -10h4q4 0 8 -2t8 -2q43 -14 79 -34t63.5 -36t43 -28.5t17.5 -14.5q29 -25 35 -62.5t-23 -66.5q-25 -33 -63.5 -36t-71.5 20q0 4 -23.5 20.5t-56.5 32.5q-4 0 -4 2v4q-18 6 -26 -6q-4 -6 -7 -14v-355 q0 -4 4.5 -15t16.5 -15q29 -12 62.5 -32t66.5 -44q43 -35 88 -85t67.5 -120t12.5 -156t-78 -190q-80 -104 -203 -139h-4q-23 -8 -28 -15.5t-5 -11.5v-6v-47q0 -47 -21.5 -83t-53.5 -36q-33 0 -56.5 36t-23.5 83v47q0 10 -3 14t-7 8q-6 4 -11 4q-66 12 -122 35t-99 46.5 t-67.5 42t-26.5 22.5q-33 20 -40 58zM351 1021q7 -44 52 -91q10 -8 18.5 -12.5t20.5 -14.5q0 -4 10.5 -7t10.5 13v283q0 25 -11.5 26t-15.5 -4q-16 -8 -27.5 -18t-19.5 -18q-29 -37 -37 -78q-8 -35 -1 -79zM618 242q0 -4 2.5 -15.5t18.5 -1.5q86 63 99.5 126t-7.5 110 q-23 55 -80 106q-10 0 -16 11h-6q-4 4 -8 0q-2 -2 -3 -7v-329z" />
<glyph unicode="&#x26;" horiz-adv-x="1282" d="M74 431q4 36 14 77q25 68 66 126t94 111q12 12 23.5 24.5t23.5 29.5q8 4 15 10t16 14q23 10 26 23q23 18 0 37q-4 16 -13 28.5t-17 28.5q-16 33 -31 67.5t-23 75.5q-4 35 0 71t21 73q20 59 64 104t100 74q68 33 139.5 29t136.5 -43q55 -33 93 -85.5t55 -117.5 q4 -35 2 -71t-19 -70q-16 -35 -35.5 -65t-44.5 -58q-10 -16 -25.5 -28.5t-25.5 -29.5q-10 -4 -17 -11l-16 -15q-4 -4 -10 -8.5t-10 -12.5q-16 -10 -17 -33q4 -8 10.5 -15t10.5 -15t11 -15.5t11 -17.5q10 -16 20.5 -31.5t20.5 -32.5q12 -16 24.5 -30.5t25.5 -26.5 q10 -16 22 -31.5t25 -25.5q31 -25 63 0q10 10 22.5 25.5t24.5 27.5q16 10 28.5 18.5t25.5 18.5q31 18 64.5 15t61.5 -27q10 -16 17.5 -32t3.5 -36q0 -31 -27 -63q-8 -12 -21 -24.5t-26 -29.5q-12 -12 -25.5 -24.5t-21.5 -28.5q-4 -16 -3 -30.5t13 -26.5t24.5 -26.5 t29.5 -27.5q12 -14 29.5 -32.5t36 -39t33.5 -42t21 -39.5q4 -8 3.5 -6t-2 6t-2.5 6t1 -6q8 -16 11.5 -31.5t-6.5 -32.5q-6 -35 -31 -41q-29 -20 -58.5 -13t-58.5 24q-14 8 -31.5 22t-36 30.5t-35 34t-28.5 29.5q-8 10 -19.5 22.5t-23.5 24.5t-24.5 18.5t-28.5 -1.5 q-8 0 -15.5 -6t-11.5 -11q-8 -8 -15 -13t-16 -13q-16 -12 -28.5 -24.5t-28.5 -22.5q-33 -25 -64.5 -45.5t-62.5 -40.5q-37 -16 -69.5 -22.5t-73.5 -2.5q-35 4 -68 14.5t-65 26.5q-59 29 -111.5 74t-89.5 100q-16 33 -29.5 67t-17.5 66q-8 41 -4 77zM268 412q0 -35 17.5 -67 t40.5 -54q49 -55 112 -80q20 -4 35.5 -9t32.5 5q43 23 63 41q33 25 63 48t58 48q10 8 6 4t-10 -9t-8 -6t12 11q2 2 4 3t4 3l4 4l-4 -4q-2 -2 -4 -3t-4 -3q10 8 15.5 18.5t1.5 18.5q0 23 -17 37q-16 16 -30.5 31.5t-26.5 35.5q-16 16 -28.5 31.5t-24.5 32.5q-8 16 -19.5 31.5 t-21.5 31.5l-9 17q-4 8 -14 16q-4 10 -20 21q-16 12 -31.5 7t-26.5 -18q-29 -25 -54.5 -52.5t-45.5 -57.5q-12 -12 -23.5 -27.5t-19.5 -36.5q-8 -16 -15.5 -32.5t-11.5 -36.5zM465 1114q0 -10 5 -21.5t9 -19.5q8 -20 17 -37l16 -32q8 -12 16.5 -20.5t24.5 -0.5q10 4 14 8 t13 8q4 8 11 12.5t11 14.5q16 10 28.5 25.5t22.5 25.5q10 16 18.5 32.5t8.5 37.5q0 31 -27 57q-29 25 -61.5 31t-63.5 -14q-14 -8 -14 -7.5t5 4t10.5 5.5t-1.5 -2q-37 -23 -53 -64q-10 -16 -10 -43z" />
<glyph unicode="'" horiz-adv-x="456" d="M77 1115q1 15 6 28.5t7 21.5l123 271q0 10 10 28.5t26.5 33.5t40 21.5t52.5 -8.5q35 -16 47 -36.5t10 -41t-12 -39t-18 -30.5l-142 -236q-4 -10 -15 -26.5t-27.5 -28.5t-37 -18t-41.5 6q-18 8 -24 23.5t-5 30.5z" />
<glyph unicode="(" horiz-adv-x="505" d="M88 514q0 135 17.5 270.5t46.5 270.5q14 66 31.5 130t39.5 128q12 31 22.5 58.5t18.5 60.5q6 12 19.5 33.5t34 39t48 24.5t64.5 -11t44 -53t-1 -69t-20.5 -60.5t-12.5 -30.5q-2 -14 -7 -28.5t-9 -31.5q-23 -59 -38 -118.5t-32 -120.5q-27 -117 -40 -241t-17 -251 q0 -123 14.5 -248t40.5 -250q18 -78 46 -160.5t57 -162.5q4 -8 4 -17q6 -12 12 -34.5t7 -46t-7 -45t-31 -35.5l-10 -4q-37 -14 -67.5 -1t-54 37.5t-39 54t-21.5 48.5q-31 80 -53.5 162t-44.5 161q-33 137 -47.5 271.5t-14.5 269.5z" />
<glyph unicode=")" horiz-adv-x="591" d="M31 -406.5q0 23.5 6 46t12 36.5q2 0 8 15q63 162 99 323q55 242 55 490q0 125 -15.5 246.5t-41.5 242.5q-12 59 -30 120t-38 118q-6 27 -18 55q0 6 -12.5 31.5t-18.5 59.5t1 68t48 54q33 18 59.5 11t47 -24.5t33 -40t16.5 -34.5q10 -29 21 -56.5t22 -56.5q23 -66 39 -130 t30 -128q31 -133 47.5 -267t16.5 -269t-14.5 -268.5t-45.5 -266.5q-18 -84 -42.5 -163.5t-53.5 -159.5q-8 -18 -24.5 -47t-39 -53.5t-52 -38t-64.5 -1.5l-10 9q-25 12 -33 33.5t-8 45z" />
<glyph unicode="*" horiz-adv-x="606" d="M55 1078.5q8 19.5 29 35.5l119 82q20 12 20 31.5t-20 36.5l-119 82q-20 16 -28.5 33.5t1.5 29.5q10 16 32 16t40 -16l100 -72q16 -16 28.5 -9t12.5 30v123q0 29 11.5 47t35.5 18q14 0 23.5 -18.5t9.5 -46.5v-123q0 -23 15.5 -30t37.5 9l95 72q14 16 36.5 16t32.5 -16 q10 -12 2 -29.5t-30 -33.5l-119 -82q-23 -16 -23 -36t23 -32l119 -82q23 -16 31 -35.5t-3 -31.5q-10 -12 -32.5 -12.5t-36.5 12.5l-95 77q-23 12 -38 4t-15 -36v-115q0 -55 -33 -55q-47 0 -47 55v125q8 20 -6 27.5t-35 -5.5l-100 -77q-18 -12 -39.5 -12.5t-32.5 12.5 q-10 12 -2 31.5z" />
<glyph unicode="," horiz-adv-x="393" d="M38 -201.5q1 15.5 6 28.5t7 21l123 271q0 10 10.5 28.5t26.5 34t39.5 21.5t52.5 -8q35 -16 47 -37t10 -41.5t-12 -39t-18 -30.5l-142 -235q-4 -10 -15 -26.5t-27.5 -29t-37 -18.5t-40.5 6q-18 8 -24.5 23.5t-5.5 31z" />
<glyph unicode="-" horiz-adv-x="980" d="M35 739q0 41 52 71t124 30h502q72 0 123 -30t51 -71t-51.5 -68.5t-122.5 -27.5h-502q-72 0 -124 27.5t-52 68.5z" />
<glyph unicode="." horiz-adv-x="237" d="M23 98q0 41 28.5 70t69.5 29t69.5 -29t28.5 -70t-28.5 -69.5t-69.5 -28.5t-69.5 28.5t-28.5 69.5z" />
<glyph unicode="0" horiz-adv-x="907" d="M61 416v37v192v246v139q0 92 38 174t108 142q82 63 188.5 81.5t204.5 -20.5q41 -18 79 -46t66 -63q16 -10 29.5 -30.5t24.5 -38.5q6 -10 11 -17.5t5 -13.5q2 -4 4 -6t2 -4v-4v-8q23 -53 27 -100.5t4 -98.5v-193v-239v-146q0 -80 -30.5 -152.5t-84.5 -131.5 q-76 -74 -180 -100.5t-203 1.5q-88 23 -160.5 83.5t-101.5 146.5q-16 41 -23.5 85t-7.5 85zM238 408q0 -35 7 -69t23 -63q29 -41 73 -67.5t97 -32.5q47 -4 90 11.5t78 50.5q35 29 52.5 71.5t17.5 89.5v31v193v237v162q0 16 -1 36.5t-7 33.5q-16 53 -47 91t-82 54 q-41 23 -92.5 18.5t-92.5 -26.5q-84 -47 -108 -129q-6 -29 -7 -67t-1 -72v-216v-231v-106z" />
<glyph unicode="1" horiz-adv-x="499" d="M35 1137q6 23 18.5 37t22.5 30q29 39 55.5 76t54.5 72q27 35 62 57q10 4 20.5 9t20.5 9q16 4 24 5q31 0 56.5 -20.5t42.5 -47.5q6 -12 5 -10l-4 8q-3 6 -5 9t4 -7q2 -2 3 -5t3 -5l-6 9q-2 3 -4 7q16 -29 20 -59.5t4 -65.5v-184v-363v-391v-98v-41q0 -20 -2 -41 q-4 -37 -18.5 -72t-49.5 -51q-39 -14 -66.5 9.5t-43.5 58.5q-8 23 -9 45t-1 45v94v391v389q0 18 -1 41t-12 41q-10 18 -20 5t-21 -21q-25 -39 -63 -41q-39 -6 -64 12q-14 12 -22 28t-4 36z" />
<glyph unicode="2" horiz-adv-x="980" d="M84 94q0 16 9 33.5t20 32.5q29 37 56.5 75.5t55.5 77.5q53 84 108.5 162t112.5 164q29 37 56.5 76t54.5 80q14 20 28.5 39.5t28.5 39.5q10 18 22.5 36t25.5 38q43 72 26 154q-16 37 -38.5 68.5t-53.5 52.5q-33 20 -71 26t-73.5 -1t-68.5 -25.5t-55 -48.5 q-49 -72 -39 -154q6 -23 15 -43.5t20 -40.5q12 -14 21 -31.5t13 -40.5q10 -41 -16.5 -68.5t-62.5 -27.5q-39 0 -62.5 23.5t-46.5 52.5q-43 66 -56.5 143.5t7.5 155.5q16 76 61 136t111 97q137 82 287 45q72 -16 132 -60t97 -108q43 -66 56.5 -142.5t-1.5 -152.5 q-12 -37 -31.5 -71.5t-41.5 -69.5q-29 -37 -57.5 -72.5t-57.5 -76.5q-57 -80 -114.5 -156t-115.5 -158q-12 -16 -25 -31.5t-24 -31.5q-10 -16 -11 -31.5t11 -26.5q14 -16 35 -18t41 -2h92h195h49h20h9q20 -4 40.5 -10t34.5 -25q12 -6 11.5 -6t-5 3l-7.5 5t1 -2q4 0 6.5 -1 t4.5 -1q-6 2 -15 10q16 -10 27.5 -30.5t7.5 -40.5q-10 -29 -33.5 -44.5t-46.5 -21.5t-46 -7t-46 -1h-96h-191h-196h-99h-49h-20q-10 0 -15 4q-28 18 -22 49z" />
<glyph unicode="3" horiz-adv-x="960" d="M55 444q6 31 19.5 62t42.5 43q33 12 60.5 -6.5t39.5 -44.5q14 -31 15 -63t8 -62q10 -35 25.5 -67t39.5 -54q51 -45 124 -59.5t136 8.5q59 25 98 75t50 113q6 59 -18.5 117.5t-73.5 95.5q-27 23 -55.5 34t-53.5 34q-27 18 -40 45.5t-3 58.5q12 33 40 50.5t56 29.5 q29 16 52.5 35.5t39.5 48.5q33 51 30 108.5t-34 108.5q-35 47 -88 72.5t-112 19.5q-57 -10 -106.5 -48t-74.5 -93q-12 -35 -12 -72v-36q0 -17 -4 -35q-10 -23 -32.5 -36.5t-47.5 -13.5q-31 2 -50.5 19.5t-28.5 44.5t-12 55.5t-1 50.5q6 66 42 129.5t83 110.5 q45 45 104.5 71.5t122 35t127 -5t119.5 -48.5q59 -37 101 -90t63.5 -116.5t22.5 -131t-23 -133.5q-10 -29 -25.5 -60.5t-42.5 -58.5l-12 -12q-6 -6 -16 -12q-4 0 -8.5 -5t-0.5 -12q4 -4 9.5 -7t11.5 -9q74 -74 108 -164q0 -4 10.5 -35.5t16.5 -68.5v-35v-29v-12 q-14 -123 -89 -221t-192 -139q-66 -23 -134 -22t-132.5 22.5t-120 62.5t-94.5 100q-39 57 -62.5 123.5t-17.5 132.5z" />
<glyph unicode="4" horiz-adv-x="1021" d="M90 371q6 33 31 67q10 16 16 32.5t17 37.5q72 147 140 293.5t140 294.5q20 37 36.5 74.5t37.5 72.5q16 35 30.5 70t36.5 67q16 27 44 41.5t57 10.5q33 -4 57.5 -26t32.5 -46q6 -20 5 -41t-1 -37v-78v-164v-325v-160q0 -12 -2 -29.5t0 -33t8 -26.5t23 -15q23 -6 46 -6.5 t46 -6.5t39 -28.5t16 -49.5q4 -29 -15.5 -52t-45.5 -34q-16 -6 -29.5 -5t-30.5 1q-12 -4 -24.5 -5t-18.5 -11q-10 -10 -11 -21.5t-1 -21.5v-66q0 -29 -1 -58.5t-21 -51.5q-18 -27 -47 -33t-56 6q-29 16 -40 43t-11 55q-4 29 0 66t-10 70q-16 29 -52 28h-63h-160 q-39 0 -79 -3t-76 7q-70 23 -64 97zM330 499.5q-6 -14.5 2 -30.5q2 -12 14 -16t26.5 -6.5t30 -1.5t27.5 1h78h32q15 0 27 11q10 2 7 1t-7 -3t-7 -3t7 5q12 4 19.5 16t7.5 27v75v173v163v82v11q0 8 -2 14t-4 8t-8 -6q-12 -14 -19.5 -33.5t-13.5 -36.5q-10 -16 -17.5 -32.5 t-13.5 -36.5q-20 -35 -36.5 -71t-33.5 -71q-18 -35 -35.5 -70.5t-35.5 -74.5l-17 -33l-18 -37q-4 -10 -10 -24.5z" />
<glyph unicode="5" horiz-adv-x="960" d="M53 389q0 20 5 40t14 30q27 27 69 26q45 -8 62.5 -40.5t32.5 -73.5q12 -76 77 -129q27 -27 64 -41.5t76 -18.5q39 0 76.5 12.5t69.5 36t54.5 55t32.5 70.5q25 78 -7 154t-97 117q-18 10 -35 17t-45 7q-35 8 -84 0h-99q-23 0 -44 2t-39 15q-18 6 -36 17t-24 26 q-16 37 0 75q0 53 8.5 100.5t16.5 92.5q8 51 13 98t15 92q4 27 6.5 51.5t8.5 43.5q0 27 7 44t19 35q14 12 27.5 29t32.5 25q23 4 44 5t44 1h188h99h94q16 -6 33.5 -17.5t29.5 -24.5t15.5 -29.5t-9.5 -33.5q-10 -23 -28.5 -34t-40 -15t-44.5 -4h-42h-191q-20 0 -38.5 -4 t-41.5 -10q-10 -12 -26.5 -30.5t-26.5 -31.5q-12 -18 -14 -41.5t-2 -42.5q-6 -29 -8.5 -53t-6.5 -45q0 -4 1 1t1 9t0 3t-2 -13v10q0 -35 -6 -64.5t13 -58.5q14 -12 27.5 -19t25.5 -15q18 -6 38.5 -7.5t39.5 -1.5q66 0 131 -29.5t118 -74.5q61 -57 96.5 -137t35.5 -166 q0 -156 -103 -277q-47 -59 -118.5 -96t-143.5 -41q-84 -8 -160 12.5t-141 75.5q-35 23 -60.5 53.5t-44.5 65.5q-27 41 -44 84t-9 88z" />
<glyph unicode="6" horiz-adv-x="911" d="M61 391q-4 41 2.5 83t20.5 79q16 43 35.5 87t36.5 87q35 92 71.5 179t71.5 179q20 47 37.5 92.5t38.5 88.5q14 37 27.5 74.5t43.5 64.5q29 23 66 25t61 -29q12 -16 18.5 -35.5t-1.5 -40.5q-6 -23 -15.5 -44t-19.5 -42q-37 -92 -75 -179t-79 -175q-4 -10 -12 -29.5 t0 -30.5q6 -6 15.5 -5t15.5 1q10 4 19.5 7t17.5 3q47 6 92 -3t86 -25q41 -20 74.5 -43t64.5 -51l55 -68l7 -15l6 -16q4 -10 12 -22q10 -18 25 -58q4 -14 6 -25t2 -24q14 -98 -17.5 -191t-99.5 -165q-53 -53 -124 -85t-146 -36q-84 -6 -166 23.5t-144 89.5q-57 53 -90 124.5 t-39 149.5zM246 369q16 -72 67.5 -123t124.5 -62q80 -14 153 28t103 116q16 41 17.5 84t-12 83t-40 73.5t-63.5 56.5q-61 35 -132 29.5t-124 -48.5q-61 -41 -85.5 -105t-8.5 -132z" />
<glyph unicode="7" horiz-adv-x="958" d="M47 1290q-23 35 0 64q29 35 73 42t83 7h391h197h45q23 0 45 -8q8 -4 15 -10.5t9 -16.5q8 -12 8 -18v-15q0 -4 -4 -12t-6 -14q-4 -8 -7 -18.5t-9 -22.5q-10 -23 -17.5 -44.5t-19.5 -43.5q-16 -45 -33.5 -91.5t-36.5 -91.5q-37 -90 -72.5 -180t-72.5 -180 q-35 -92 -70 -183.5t-71 -181.5q-20 -45 -36 -90t-38 -90q-14 -33 -44 -65.5t-77 -26.5q-18 0 -33.5 12.5t-25.5 28.5q-8 16 -9.5 35.5t2.5 38.5q8 23 16.5 43t16.5 43q18 45 33 92q41 92 78 184t72 185q37 92 72.5 182t72.5 182l16 45l17 45q6 20 8 39t-4 39 q-20 41 -62.5 45t-83.5 0h-196h-96q-37 0 -82 10q-20 6 -38 15.5t-26 25.5z" />
<glyph unicode="8" horiz-adv-x="894" d="M43 352q-14 86 8.5 168t73.5 150q29 35 59 57q6 4 14.5 11t-1.5 18q-10 6 -17.5 11t-13.5 15q-25 23 -44.5 56.5t-33.5 70.5q-27 72 -23.5 146.5t33.5 146.5q35 76 96.5 130t139.5 79q86 29 170 17.5t160 -58.5q68 -45 112.5 -110.5t59.5 -147.5q14 -74 -3.5 -153.5 t-64.5 -145.5q-14 -16 -28.5 -29.5t-30.5 -27.5q-6 -18 8 -29q10 -6 17 -11t16 -16q35 -29 53 -67q8 -10 13 -18.5t9 -22.5q29 -51 40.5 -120t-11.5 -155q-10 -55 -39 -104t-65 -90q-55 -53 -123 -85t-146 -38t-152.5 18.5t-135.5 71.5t-100.5 117.5t-49.5 144.5zM217.5 468 q-18.5 -77 15.5 -151q14 -31 34 -57.5t48 -42.5q10 -6 36 -20.5t63 -20.5t84 2t98 43q27 16 46.5 43t29.5 58q33 74 10 155.5t-92 132.5q-63 45 -145.5 43t-143.5 -57q-65 -51 -83.5 -128zM240 1025q4 -38 20 -71q35 -76 107.5 -106.5t150.5 -5.5q76 23 116 89t30 140 q-10 78 -68.5 130t-136.5 56q-35 0 -68 -8t-63 -28q-33 -23 -53.5 -54.5t-29.5 -67.5t-5 -74z" />
<glyph unicode="9" horiz-adv-x="933" d="M63 934q-18 86 1.5 171t66.5 157q47 59 113.5 102t142.5 57q70 16 141.5 7t130.5 -42q66 -35 119 -88q45 -47 79 -119.5t28 -177.5v-24q0 -12 -4 -23q-4 -16 -6.5 -28.5t-6.5 -28.5q-10 -27 -20 -51l-21 -49q-18 -41 -32.5 -82t-30.5 -82q-39 -92 -76 -178t-72 -179 l-36 -90q-18 -45 -41 -90q-10 -37 -38 -67.5t-73 -24.5q-41 4 -64.5 38t-9.5 75q18 41 39 85t39 87q16 45 34.5 90t41.5 90q10 23 17 44.5t18 43.5q2 4 6 14.5t7 19.5t0 16t-17 5q-10 0 -20.5 -4t-22.5 -4q-12 -4 -23 -4h-22q-45 0 -89 12q-39 12 -76.5 31t-70.5 45 q-57 47 -99.5 110.5t-52.5 135.5zM244.5 945q27.5 -83 99.5 -128q59 -39 129 -37t127 41q59 39 87 102.5t13 133.5q-12 70 -61 123t-119 69q-88 18 -166 -22q-16 -12 -33.5 -25.5t-33.5 -32.5q-6 -6 -13 -14l-12 -16q0 -6 -2 -9.5t-4 -7.5q0 -4 -2 -6t-2 -6 q-35 -82 -7.5 -165z" />
<glyph unicode=":" horiz-adv-x="339" d="M61 98q0 41 25 70t61 33q37 10 70 -9.5t47 -56.5q10 -37 -3 -70.5t-46 -52.5q-33 -18 -73 -13t-62 38q-10 14 -14.5 30.5t-4.5 30.5zM61 831q0 37 25 66t61 39q37 4 70 -15.5t47 -52.5q10 -37 -3 -73.5t-46 -55.5q-33 -18 -73 -11t-62 36q-19 26 -19 67z" />
<glyph unicode=";" horiz-adv-x="444" d="M30 -201.5q-1 -15.5 5 -31t24 -23.5q20 -12 41 -6t37.5 18.5t27.5 28.5t15 27l142 235q8 12 18 30.5t12 39t-10 41t-47 37.5q-29 14 -52.5 8t-40 -21.5t-26.5 -34t-10 -28.5l-123 -271q-2 -8 -7 -21t-6 -28.5zM145 831q0 35 24 64t62 39q35 6 68 -13.5t47 -52.5 q12 -37 -2 -73.5t-49 -55.5q-31 -18 -68 -11t-59 36q-23 24 -23 67z" />
<glyph unicode="?" horiz-adv-x="835" d="M55 1164.5q2 25.5 8 47.5q10 39 36 72t55 55q82 70 192.5 84.5t208.5 -20.5q100 -37 161.5 -122t63.5 -189q6 -86 -28 -168q-16 -37 -41 -71t-60 -60q-27 -23 -56.5 -43.5t-49.5 -49.5q-18 -23 -21.5 -48t-3.5 -48v-88q0 -31 -6 -63.5t-29 -59.5q-16 -20 -41.5 -30.5 t-54.5 -0.5q-27 10 -41 34t-20 51.5t-7.5 57.5t-1.5 54v74q0 115 70 194q18 20 37.5 39t38.5 35q20 14 38.5 27.5t35.5 29.5q29 31 39 75t-3 83q-10 49 -48 76t-86 34t-95 -6.5t-76 -43.5q-20 -20 -28 -41q-8 -16 -25 -33q-18 -18 -57 -23q-27 -4 -55.5 3.5t-41.5 31.5 q-10 25 -8 50.5zM313 90q-6 41 20.5 76t67.5 41q18 2 13.5 2t-14 -2t-14.5 -3t15 3q41 6 77 -17.5t46 -64.5q6 -41 -17.5 -77t-64.5 -46q-45 -10 -83 15.5t-46 72.5z" />
<glyph unicode="A" horiz-adv-x="1153" d="M20 27q-8 17 -8 37q0 26 13 59l407 1192q8 27 23.5 50.5t35 41.5t41 29.5t39.5 11.5q43 0 87 -41t61 -92l407 -1192q11 -32 11 -58q0 -22 -8 -38q-17 -37 -60 -37q-41 0 -82 36.5t-57 96.5l-35 76q-16 59 -70.5 96t-111.5 37h-275q-57 0 -112.5 -37t-75.5 -96l-29 -76 q-16 -59 -59 -96t-80 -37q-44 0 -62 37zM397 627q-10 -23 -9 -43q0 -27 18 -50q31 -40 90 -40h159q59 0 87 40q17 25 18 55q0 18 -6 38l-133 393q-20 53 -45 53t-46 -53z" />
<glyph unicode="B" horiz-adv-x="995" d="M61 135v330v868q0 37 27 70q25 25 58.5 29t68.5 4h193q31 0 58.5 -1t55.5 -5q63 -12 120.5 -45t94.5 -87q37 -51 56 -115q17 -58 16 -118v-13q-2 -67 -23.5 -130.5t-60.5 -110.5q90 -35 150.5 -102.5t85.5 -159.5q4 -16 3 -12l-3 12l-4 12q-1 4 4 -12q17 -64 17 -131 q0 -21 -2 -43q-7 -90 -48 -164q-37 -78 -106.5 -128t-151.5 -71q-64 -15 -132 -14h-17q-77 2 -152 2h-109h-53q-27 0 -53 6q-43 10 -68 46t-25 83zM257 311v-11q0 -23 3 -44q4 -27 16.5 -50.5t36.5 -35.5q30 -16 66 -16q6 0 12 1q43 3 80 3q41 0 84 1t83 10t76 29.5t62 59.5 q10 14 10 13t-4 -7t-8 -11t2 5q25 33 36 79q10 42 10 85q0 51 -15 100q-14 45 -43 78q-47 53 -113.5 68.5t-134.5 15.5h-141q-43 0 -80 -22.5t-37 -71.5v-225q0 -25 -1 -54zM258 958q0 -23 2 -46t19 -44q14 -16 36.5 -22t44.5 -7q8 0 16 -1q15 0 31 2q24 2 42 2 q53 0 98 20.5t74 67.5q29 49 31 117q0 8 1 16q0 58 -20 104q-20 53 -67.5 82t-100.5 31h-92q-16 0 -37 -1t-38 -7t-28.5 -19.5t-11.5 -35.5v-125v-134z" />
<glyph unicode="C" horiz-adv-x="999" d="M55 871q-1 16 0 33q0 33 2 67q6 63 23.5 124.5t48.5 116t76 99.5t104 75q55 29 120 41q46 9 92 9q19 0 38 -1q66 -5 128.5 -27t113.5 -60q33 -25 69.5 -65t57.5 -84q16 -35 16 -71q0 -9 -1 -18q-5 -45 -54 -78q-31 -20 -58 -20q-6 0 -12 1q-33 5 -51 46q-18 47 -40.5 86 t-72.5 65q-53 29 -117 30h-7q-61 0 -111 -17q-59 -16 -96 -61.5t-56 -98.5q-25 -63 -24 -129v-131v-187q0 -53 -3 -105q-1 -17 -1 -34q0 -34 4 -65q12 -59 43.5 -109.5t85.5 -75.5q59 -23 124 -27l30 -2q48 0 94 13q51 12 91 47t56 86q10 27 30.5 47.5t53.5 20.5 q39 0 66.5 -28t33.5 -69l2 -18q0 -16 -5 -34q-7 -28 -22.5 -52.5t-34 -47t-36.5 -38.5q-47 -45 -104.5 -72.5t-119.5 -40.5q-58 -11 -117 -11h-10q-65 1 -124 15q-123 33 -204 125t-109 215q-10 53 -11 110v114v192q0 51 -2 99z" />
<glyph unicode="D" horiz-adv-x="1081" d="M49 172q4 49 4 96v56v499v451q0 35 4 71.5t41 61.5q20 14 47 20.5t56 7.5h19l38 -1q29 -2 55 -2q86 0 172 -4.5t172 -20.5q31 -10 18 -7t-33.5 7t-26 6t41.5 -6q90 -25 158 -79t114 -128t72.5 -160t37.5 -177q9 -72 9 -142v-39q-3 -90 -18 -168q-25 -143 -99.5 -265 t-205.5 -188q-70 -37 -144.5 -49t-150.5 -12h-240q-43 0 -77.5 17.5t-51.5 60.5q-13 36 -13 75q0 9 1 19zM255 274q0 -19 5 -38q10 -35 37 -56.5t59 -21.5q17 -2 34.5 -2t33.5 2q33 4 68 8q29 6 56 13t56 20q88 43 141 116q47 66 66.5 141.5t19.5 155.5q2 41 3 82 q0 75 -8 148q-11 113 -60 221q-33 78 -100.5 125t-149.5 65q-43 10 -96 16q-13 1 -25 1q-39 0 -71 -13q-31 -10 -45.5 -29.5t-19.5 -41.5q-4 -19 -4 -40v-8q1 -26 1 -51v-135v-489v-139q0 -8 -0.5 -24.5t-0.5 -25.5z" />
<glyph unicode="E" d="M76 152v18v123v203v223v211v209v116q0 51 13 84t33.5 52.5t44 29t42.5 13.5h57h150h336q55 0 94 -22.5t39 -55.5t-39 -57.5t-94 -24.5h-336q-57 0 -96 -39t-39 -96v-152q0 -55 38.5 -95t96.5 -40h268q55 0 95 -24.5t40 -55.5q0 -33 -40 -55.5t-95 -22.5h-268 q-57 0 -96 -41t-39 -100v-260q0 -59 38.5 -100t96.5 -41h336q55 0 94 -23t39 -55q0 -31 -39 -52.5t-94 -21.5h-336h-156h-18q-53 0 -85 17.5t-49.5 42t-23.5 50.5t-8 42z" />
<glyph unicode="F" horiz-adv-x="925" d="M74 135v361v221v215v209v114q0 59 18.5 94t45 52.5t53 24t42.5 8.5h7h172h338q55 0 97 -24t42 -56q0 -33 -42 -56.5t-97 -23.5h-338q-59 0 -100.5 -40t-41.5 -93v-154q0 -55 41 -95t101 -40h282q59 0 100.5 -23.5t41.5 -56.5t-41 -56.5t-101 -23.5h-282q-59 0 -100.5 -41 t-41.5 -100v-416q0 -55 -28.5 -95t-69.5 -40t-69.5 40t-28.5 95z" />
<glyph unicode="G" horiz-adv-x="1032" d="M54 500q1 39 1 80v188v101q0 50 4 102q6 61 23.5 122.5t48.5 117t74 100.5t102 75q57 29 122 40q47 8 96 9q18 0 35 -1q67 -4 129.5 -26t113.5 -60q33 -25 68.5 -66t57.5 -87q18 -39 18 -76q0 -7 -1 -14q-4 -44 -53 -77q-32 -18 -60 -18q-6 0 -13 1q-34 5 -50 46 q-20 47 -44 87t-71 66q-53 25 -117 28h-17q-55 0 -101 -17q-57 -23 -93 -69t-53 -103q-20 -59 -22 -123t-2 -129v-189q0 -19 -0.5 -56t-0.5 -55q0 -47 9 -94q10 -57 37 -107t80 -77q51 -27 106 -30q24 -1 47 -1q31 0 62 2q53 4 102 19.5t80 62.5q20 29 25.5 61t5.5 66 q0 37 -4 72t-27 66q-31 43 -86 55q-27 4 -52.5 4t-49.5 4q-20 4 -42 13.5t-24 29.5q-4 20 8.5 35.5t28.5 26.5q44 25 99 24h9q60 -2 113 -2q20 0 46 2t52.5 0t49 -11t39.5 -30q14 -20 13 -41.5t-1 -44.5v-108q0 -66 3 -138v-13q0 -64 -26 -118q-2 -4 0 2t5.5 12.5t3.5 5.5 t-9 -20q-47 -94 -132 -148t-185 -69q-54 -8 -109 -8q-47 0 -94 6q-102 12 -186 72q-86 57 -133 150.5t-58 191.5q-1 27 -1 54v26z" />
<glyph unicode="H" horiz-adv-x="1067" d="M68 137v363v221v215v362q0 53 29.5 96.5t70.5 43.5t69.5 -43t28.5 -97v-362q0 -61 43 -102t97 -41h251q61 0 102.5 40.5t41.5 102.5v362q0 53 27.5 96.5t68.5 43.5t69.5 -43t28.5 -97v-362v-215v-221v-363q0 -55 -28.5 -95t-69.5 -40t-68.5 40t-27.5 95v363q0 59 -41 100 t-103 41h-251q-53 0 -96.5 -41t-43.5 -100v-363q0 -55 -28.5 -95t-69.5 -40t-70.5 40t-29.5 95z" />
<glyph unicode="I" horiz-adv-x="456" d="M125 135v1170q0 59 28.5 100t69.5 41t70 -41t29 -100v-1170q0 -59 -29 -100t-70 -41t-69.5 41t-28.5 100z" />
<glyph unicode="J" horiz-adv-x="937" d="M42 361q0 36 26 59q28 20 55 20l14 -2q35 -4 59.5 -30.5t39.5 -55.5q16 -27 26 -51.5t31 -44.5q18 -18 43.5 -30.5t52.5 -20.5q28 -6 56.5 -6t58.5 6q59 12 100 59q31 35 47.5 82t16.5 92q1 27 1 54v27q-1 40 -1 81v545q0 31 -2 80q0 11 -1 21q0 38 6 75q7 47 28 80 q20 31 64 31h5q33 0 52.5 -18.5t29.5 -45.5t13 -56.5t3 -54.5v-296v-494q0 -53 -8 -105.5t-29 -101.5q-49 -125 -153 -192q-101 -66 -232 -66h-8q-135 4 -236.5 78t-144.5 196q-13 47 -13 85zM121 438h10h-4h-6z" />
<glyph unicode="K" horiz-adv-x="1038" d="M94 145v1160q0 55 32 94t73 39t68.5 -39t27.5 -94v-291q0 -55 24 -64q4 -1 9 -1q22 0 53 34l297 352q18 20 41.5 43t48.5 39.5t50 22.5q11 3 22 2q14 0 26 -4q23 -4 34 -16.5t15 -30.5q4 -4 4.5 -30t-28.5 -63l-383 -448q-37 -47 -37 -106.5t37 -106.5l430 -473 q16 -20 29 -41q10 -16 17 -36q5 -12 5 -22q0 -5 -2 -10q-10 -14 -21.5 -26.5t-33.5 -16.5q-11 -2 -23 -2l-75 26q-49 34 -89 79l-352 389q-37 41 -65.5 68.5t-32.5 27.5v-145v-310q0 -53 -27.5 -96t-68.5 -43t-73 43t-32 96z" />
<glyph unicode="L" horiz-adv-x="952" d="M113 195v43v61v997q0 53 31.5 96.5t72.5 43.5t68.5 -43t27.5 -97v-997q0 -59 40 -99t96 -40h335q55 0 95.5 -23.5t40.5 -56.5t-40 -53.5t-96 -20.5h-335h-111q-68 0 -111 20.5t-67.5 49t-34.5 61.5t-12 58z" />
<glyph unicode="M" horiz-adv-x="1247" d="M63 129v1167q0 57 29 97.5t70 40.5q43 0 84 -37t59 -94l270 -914q20 -55 44 -55t38 55l277 914q14 57 55 94t82 37t73 -40t32 -98v-1167q0 -55 -32 -95t-73 -40t-70.5 40t-29.5 95v674q0 55 -11.5 58t-25.5 -52l-197 -680q-18 -55 -51 -95t-65 -40q-35 0 -70 40t-49 95 l-203 680q-14 55 -25.5 52t-11.5 -58v-674q0 -55 -28.5 -95t-71.5 -40q-41 0 -70 40t-29 95z" />
<glyph unicode="N" horiz-adv-x="1056" d="M70 139v1151q0 59 27.5 100.5t68.5 41.5t88 -37t70 -92l405 -793q20 -47 39 -47q2 0 3 1q19 5 20 64v762q0 59 27.5 100.5t68.5 41.5t69.5 -41t28.5 -101v-1151q0 -59 -28.5 -99t-69.5 -40q-20 0 -43 9t-44.5 26.5t-40 39t-30.5 46.5l-405 794q-21 47 -39 48h-2 q-18 -4 -19 -60v-764q0 -59 -28.5 -99t-69.5 -40t-68.5 40t-27.5 99z" />
<glyph unicode="O" horiz-adv-x="1007" d="M37 854q-1 16 -1 31q0 31 3 61q4 123 54 238.5t155 185.5q55 35 118.5 54.5t130.5 20.5h8q62 0 124 -14q66 -15 121 -49q59 -33 101 -81t69.5 -106t42 -121.5t16.5 -127.5v-317v-122q0 -60 -6 -119.5t-23.5 -116t-54.5 -109.5q-82 -109 -208 -147q-88 -26 -178 -26 q-39 0 -79 5q-131 14 -229.5 94t-139.5 209q-23 63 -22 130v132v201q0 47 -2 94zM236 860q2 -86 2 -155v-175q0 -41 1 -82.5t10 -80.5t29.5 -73t57.5 -61q53 -39 120 -45q25 -2 49 -2q40 0 77 7q59 10 106 43.5t70 91.5q22 49 21 99q0 18 -0.5 54.5t-0.5 55.5q0 98 -2 196 q-1 33 0 66q0 66 2 131v13q0 59 -16 118q-18 66 -64 113q-47 49 -114 63q-36 8 -72 8q-30 0 -59 -6q-94 -16 -139.5 -75.5t-62.5 -138.5q-16 -71 -16 -147q1 -9 1 -18z" />
<glyph unicode="P" horiz-adv-x="1019" d="M78 154v475v458v158q0 37 1 71t21 64q31 41 79 48.5t93 7.5h197h-18q164 0 311 -68q109 -47 169 -139t60 -209q0 -10 1 -19q0 -88 -35 -164q-38 -85 -119 -145q-80 -59 -185 -86q-91 -23 -179 -23q-14 0 -28 1q-47 0 -88 -9.5t-69 -56.5q-10 -25 -11.5 -50.5t-1.5 -49.5 v-129q0 -29 2 -61q1 -16 0.5 -32t-0.5 -32q-1 -33 -7.5 -63.5t-20.5 -55.5q-29 -41 -72 -43h-4q-40 0 -70 39q-16 23 -21 52.5t-5 60.5zM273 935q-1 -10 0 -20q0 -33 8 -65q14 -47 45.5 -70.5t71.5 -33t84 -9.5t81 4q45 6 88 25.5t77 48.5t55.5 68t27.5 84q2 18 2 36 q0 36 -8 70q-12 51 -42 91t-73 68t-94 40q-25 4 -47.5 5t-42.5 1q-29 0 -57 1h-7q-25 0 -49 -7q-72 -12 -104 -80q-15 -33 -15 -74v-10q2 -47 2 -88t-3 -85z" />
<glyph unicode="Q" horiz-adv-x="1089" d="M86 471q-1 25 -1 51q0 38 2 76q3 63 3 125v205q0 109 40 219t122 184q49 43 110.5 71t126.5 38q39 6 78 6q27 0 55 -3q67 -7 126 -32q63 -25 112 -66.5t85 -96t56.5 -118t28.5 -129.5q8 -57 8 -117v-120v-195v-92q0 -45 -4 -88q-10 -127 -80.5 -228.5t-193.5 -146.5 q-23 -8 -25 -17t6.5 -18.5t22.5 -17.5t24 -12q31 -16 64 -21.5t66 -15.5l12 -2h-3q-3 0 -7.5 1t-1.5 1q27 -4 51 -15.5t41 -29.5q23 -23 26.5 -54.5t-14.5 -56.5q-25 -29 -71 -35q-28 -4 -51 -3q-16 0 -30 1q-61 12 -122.5 34t-114.5 61q-27 23 -49.5 47t-42.5 51 q-14 25 -28.5 43t-43.5 29q-41 23 -87 32t-87 31q-53 31 -93 79t-71 103q-25 55 -34 117t-11 125zM287 446q0 -47 14 -93t43 -85q37 -49 95.5 -68.5t123.5 -19.5q57 0 114.5 14.5t98.5 61.5q37 45 49 100q2 2 4 10.5t3.5 17.5t2.5 17l1 9q1 64 1 129v65q-1 98 -1 195 q0 61 2 123v15q0 54 -13 105q-18 57 -51 106.5t-92 74.5q-55 23 -121 23h-4q-63 0 -115 -27q-53 -25 -83.5 -68t-47 -94t-20.5 -106.5t-4 -104.5v-191v-209z" />
<glyph unicode="R" horiz-adv-x="1054" d="M84 166v55v979v99q0 52 35 92q16 18 42.5 29.5t53.5 15.5q33 1 65 1h31q47 -1 95 -1h81q86 -4 166 -21.5t152 -66.5q80 -49 124 -131t50 -177v-12q0 -90 -29 -174q-31 -90 -112 -149q-33 -25 -72 -39q-18 -6 -39.5 -15.5t-36.5 -29.5q-16 -23 -0.5 -43.5t25.5 -36.5 q72 -98 139.5 -196.5t130.5 -203.5q10 -18 14 -43q2 -11 2 -21q0 -13 -3 -26q-5 -23 -21 -37t-43 -10q-51 2 -91 39t-63 78q-29 45 -54.5 86t-51.5 84q-25 39 -52.5 78t-50.5 84q-12 18 -19 38.5t-22 40.5q-23 27 -56 41q-26 11 -53 12q-8 0 -15 -1q-59 -8 -89 -49t-30 -99 v-254q0 -27 -1 -51.5t-10 -46.5q-6 -23 -20 -41t-32.5 -28.5t-40.5 -11.5h-3q-20 0 -39 13q-25 16 -36 41t-16 52.5t-5 56.5zM270 968q-1 -15 -1 -31q0 -31 5 -63q6 -45 32 -68.5t60.5 -33.5t75.5 -11t78 -1q86 6 155.5 48t94.5 128q12 43 12 84q0 61 -27 116 q-46 91 -149 130q-35 12 -72.5 14t-74.5 2q-41 0 -83 -9t-71 -42q-29 -39 -30 -82t-1 -88q0 -47 -4 -93z" />
<glyph unicode="S" horiz-adv-x="942" d="M32 216q-1 7 -1 14q0 31 18 55q25 35 66 42q10 2 19 1q29 0 50 -17q20 -16 59.5 -39.5t88.5 -44t104 -30.5q31 -6 61 -6q24 0 48 4q41 10 77.5 36.5t73.5 73.5q27 47 27 80t-4 51q-10 37 -42 70t-70 57.5t-73.5 42t-54.5 23.5q-14 6 -67.5 31.5t-117 71.5t-121.5 110.5 t-79 148.5q-7 34 -7 71q0 32 8 66q9 39 29.5 82t59.5 88q80 96 190 123q42 10 86 10q72 0 152 -26q43 -12 79 -30.5t63.5 -36t45 -31t21.5 -15.5q32 -25 32 -71q0 -34 -22 -60q-29 -35 -66 -39q-5 -1 -9 0q-32 0 -60 25q-2 2 -20.5 15.5t-47 29.5t-66.5 30.5t-78 16.5h-10 l-70 -12q-40 -14 -74 -53q-43 -53 -46 -89t1 -45q8 -39 41.5 -76.5t74.5 -69.5t82 -54.5t66 -32.5q14 -4 62 -25.5t104.5 -60.5t109 -95.5t76.5 -129.5q17 -41 17 -102v-24q-4 -77 -64 -175q-53 -78 -122.5 -126.5t-158.5 -60.5q-18 -4 -37.5 -5t-35.5 -1q-84 0 -160 22.5 t-134.5 50t-94 52.5t-39.5 27q-35 22 -40 62z" />
<glyph unicode="T" horiz-adv-x="1173" d="M20 1356q0 33 43 56.5t99 23.5h178h252h246h176q59 0 100 -23.5t41 -56.5t-41 -56.5t-100 -23.5h-176q-59 0 -100.5 -40t-41.5 -95v-1000q0 -59 -31.5 -100t-72.5 -41q-47 0 -79 41t-32 100v1000q0 55 -41 95t-100 40h-178q-55 0 -98.5 23.5t-43.5 56.5z" />
<glyph unicode="U" horiz-adv-x="1046" d="M63 604q2 98 3 199v457v39q0 19 4 40q4 20 15 41t27.5 35.5t37.5 19.5q6 2 12 1q15 0 33 -9q29 -14 44 -37.5t21 -52t6 -60.5v-58v-508v-213q0 -47 2 -93.5t29 -89.5q33 -53 84 -78.5t111 -29.5q22 -2 44 -2q37 0 75 6q60 10 108 49q39 33 56.5 77t23.5 94q5 38 4 76v25 q-2 51 -2 97v278v267q0 49 -3 106q0 7 -1 14q0 49 20 86q23 41 65 54q11 3 21 3q30 0 55 -26q23 -27 32 -57.5t9 -65.5v-229v-561v-6q0 -53 -5 -106.5t-21 -104.5q-47 -121 -150 -193q-53 -37 -115.5 -58.5t-127.5 -26.5q-22 -2 -44 -2q-44 0 -89 7q-67 10 -123 35 q-117 47 -181.5 145.5t-76.5 217.5q-3 67 -3 132q-1 33 0 66z" />
<glyph unicode="V" horiz-adv-x="1181" d="M31 1303q-9 27 -9 50q0 25 10 45q19 40 66 40q41 0 81 -40t54 -95l308 -916q18 -55 42.5 -55t43.5 55l301 916q18 55 56 95t85 40q41 0 64 -40q12 -22 12 -49q0 -22 -8 -46l-406 -1174q-18 -55 -62 -92t-85 -37q-47 0 -89 37t-65 92z" />
<glyph unicode="W" horiz-adv-x="1527" d="M55 1298q-8 23 -7 44q0 28 14 52q26 40 67 40t72.5 -40t50.5 -96l262 -876q18 -53 43 -53t43 53l55 166q12 25 17.5 59.5t6.5 70.5v12q0 30 -4 58q-5 35 -13 64l-148 446q-9 28 -9 52t9 44q18 40 55 40t67 -40t44 -96l55 -213q14 -55 37 -55t37 55l55 213q14 55 46 95.5 t65 40.5q37 0 54 -40q9 -21 9 -46q0 -23 -8 -50l-147 -446q-6 -29 -11 -64q-3 -28 -3 -56v-14q1 -36 5.5 -71t14.5 -59l55 -166q18 -53 43 -53t43 53l262 876q18 55 50 95.5t73 40.5t67 -40q15 -23 15 -52q0 -20 -8 -44l-350 -1163q-18 -55 -58.5 -95t-81.5 -40t-80.5 40 t-54.5 95l-55 209q-14 53 -36.5 53t-37.5 -53l-55 -209q-14 -55 -54 -95t-81 -40t-82 40t-60 95z" />
<glyph unicode="X" horiz-adv-x="999" d="M53 81q0 20 13 42l264 471q29 51 28.5 122.5t-28.5 123.5l-264 471q-13 22 -13 41v6q2 23 14.5 40t32 26.5t39.5 9.5q41 0 67.5 -36t55.5 -87l172 -293q29 -51 68 -51t67 51l164 293q29 51 57.5 87t65.5 36q20 0 41 -9.5t34 -27t16 -39.5q1 -4 1 -8q0 -19 -12 -39 l-270 -471q-29 -51 -29 -123t29 -123l270 -471q12 -20 12 -39q0 -4 -1 -8q-3 -23 -16 -40.5t-33.5 -26.5t-41.5 -9q-37 0 -65.5 36t-57.5 87l-164 299q-29 51 -67.5 51t-67.5 -51l-172 -299q-29 -51 -55.5 -87t-67.5 -36q-20 0 -39.5 9t-31.5 27q-15 20 -15 45z" />
<glyph unicode="Y" horiz-adv-x="1067" d="M23 1360.5q0 21.5 11 38t30.5 26t41.5 9.5q41 0 77 -35t65 -82l209 -311q33 -51 77 -51.5t76 51.5l207 311q29 47 65 82t83 35q20 0 38.5 -9.5t28.5 -26t10 -38t-16 -43.5l-319 -483q-33 -51 -52.5 -125t-19.5 -134v-440q0 -55 -28.5 -95t-69.5 -40t-73 40t-32 95v440 q0 31 -5 65t-15.5 68.5t-23.5 67.5t-30 58l-319 483q-16 22 -16 43.5z" />
<glyph unicode="Z" horiz-adv-x="1044" d="M49 44q-4 13 -4 27q0 26 14 58l537 1014q12 28 12 50q0 21 -10 37q-20 34 -74 34h-334q-59 0 -99 23.5t-40 55.5q0 33 40 55.5t99 22.5h412h139h103q41 0 59.5 -22.5t1.5 -55.5q-14 -33 -44 -90t-58 -110l-443 -856q-17 -29 -16 -54q0 -18 8 -34q20 -39 80 -39h418 q53 0 95 -20.5t42 -51.5q0 -33 -42 -56.5t-95 -23.5h-498h-246q-45 0 -57 36z" />
<glyph unicode="[" horiz-adv-x="555" d="M94 -188v1384v244q0 37 33 63.5t78 26.5q43 0 102.5 3t106.5 3q49 0 81.5 -26.5t32.5 -63.5q0 -35 -32.5 -61.5t-81.5 -26.5q-47 0 -81 -45t-34 -111v-1384q0 -66 34 -111t81 -45q49 0 81.5 -24.5t32.5 -59.5t-32.5 -61.5t-81.5 -26.5q-47 0 -106.5 -3t-102.5 -3 q-45 0 -78 26.5t-33 61.5v240z" />
<glyph unicode="]" horiz-adv-x="587" d="M59 -424q0 37 32 62.5t77 25.5q49 0 85 43t36 109v1390q0 66 -36 109t-85 43q-45 0 -77 26.5t-32 61.5q0 37 32 64.5t77 27.5q49 0 107.5 -1t103.5 -1t80 -27.5t35 -64.5v-240v-1390v-240q0 -37 -35 -61.5t-80 -24.5t-103.5 1t-107.5 1q-45 0 -77 24.5t-32 61.5z" />
<glyph unicode="a" horiz-adv-x="862" d="M58 286q-1 12 -1 24q0 49 17 96q20 55 59 93t88 60.5t105.5 31.5t109.5 9q57 0 111 -12q14 -4 33.5 -11.5t31.5 3.5q8 6 8.5 18t-3 25.5t-9.5 27t-8 21.5q-16 39 -49 67q-43 43 -100 44h-5q-55 0 -104 -21q-23 -8 -41 -19.5t-36.5 -21.5t-39 -17.5t-45.5 -5.5 q-39 4 -56 29q-9 13 -9 29q0 15 8 32q16 41 57 70t82 45q84 34 184 34h6q103 -1 187 -42q88 -47 134 -137q41 -80 41 -166q0 -11 -1 -23q5 -49 5 -101v-17q-1 -61 -1 -121v-193q0 -18 -4 -40.5t-14.5 -43t-26.5 -36t-39 -17.5q-6 -1 -12 -1q-15 0 -31 7q-23 10 -37 25 q-10 10 -16 13t-21 -5q-33 -23 -72.5 -31t-80.5 -8q-15 -1 -30 -1q-30 0 -62 5q-47 8 -88 19q-59 16 -110.5 53t-80.5 94q-29 54 -34 116zM221 258q12 -35 38 -56.5t58.5 -33.5t68.5 -16.5t67 -4.5q49 -2 52 -2t-17.5 0t-52.5 1t-48 1t-6 0h72q9 -1 18 0q43 0 88 16 q55 19 76 73q4 14 7 31q1 7 1 15q0 9 -2 17q-4 66 -53 102.5t-109 42.5q-14 1 -28 1q-22 0 -45 -2q-39 -3 -74 -14t-63.5 -33.5t-43.5 -57.5q-9 -21 -9 -44q0 -18 5 -36z" />
<glyph unicode="b" horiz-adv-x="946" d="M76 230q2 40 2 79v930q0 41 2 81t29 77q28 37 65 37h7q42 -4 73 -45q22 -29 22 -66q0 -13 -1 -39.5t-1 -40.5v-192q0 -14 -1 -46t-1 -48q0 -42 23 -76q8 -16 21.5 -16.5t26.5 6t27.5 16.5t24.5 18q33 18 71 25.5t75 7.5q39 0 76.5 -7t70.5 -26q63 -31 110.5 -79 t71.5 -113q20 -49 27.5 -99.5t11.5 -99.5q4 -41 4 -86t-12 -86q-12 -57 -35.5 -114.5t-64.5 -102.5q-57 -70 -139 -101q-59 -23 -122 -23q-24 0 -48 3q-41 4 -78 20.5t-72 38.5q-12 10 -26.5 15.5t-32.5 -6.5q-12 -10 -18.5 -25.5t-22.5 -26.5q-18 -18 -49 -19h-5 q-28 0 -51 11q-39 25 -47 61t-12 77q-3 27 -3 54q0 13 1 26zM266 383q0 -74 40 -125t118 -70q10 -4 -5.5 -1t-28.5 6.5t-11 3.5t45 -9t88 -9q15 0 31 1q61 4 110 45q33 31 53.5 73t30.5 89q7 42 7 87q0 22 -2 44q-5 68 -33 125q-18 31 -42 59.5t-59 45.5q-41 18 -78.5 18 t-78.5 -6q-57 -10 -107.5 -42t-69.5 -91q-6 -27 -7 -53.5t-1 -55.5v-135z" />
<glyph unicode="c" horiz-adv-x="833" d="M52 377q-7 45 -7 89q0 76 22 148q34 115 116.5 203t213.5 111q34 7 69 7q26 0 53 -4q62 -9 120 -38q47 -25 96 -65t70 -93q3 -11 3 -22t-3 -22q-6 -22 -21.5 -37t-37 -21t-46.5 2q-37 14 -62.5 50t-59.5 58q-51 29 -111 30q-15 0 -30 -2q-77 -9 -130 -62 q-63 -66 -82 -160q-8 -42 -8 -83q0 -50 12 -97q18 -78 70.5 -136.5t136.5 -70.5q16 -3 33 -3q37 0 73 13q52 18 87 59q12 14 27.5 32t34 30t39 13t40.5 -15q4 -4 1 -2t-1 2q30 -27 30 -60q0 -7 -1 -15q-8 -42 -33 -77q-10 -16 -30.5 -33.5t-37.5 -27.5q-23 -18 -50 -32.5 t-56 -22.5q-61 -20 -122.5 -20.5t-120 18t-111 53.5t-91.5 86q-76 94 -95 217z" />
<glyph unicode="d" horiz-adv-x="940" d="M46 408q-2 28 -2 57q0 46 5 92q8 84 40 163t97 134q41 33 87 53.5t100 24.5q24 3 48 3l66 -6q57 -11 103 -48q27 -18 48 -17.5t34 33.5q6 16 7 33.5t1 36.5v207q0 29 -2 62q-1 14 -1 27q0 20 2 40q3 33 13 61.5t35 48.5q24 19 47 19q17 0 34 -10q40 -24 56 -66 q14 -35 15 -76v-158v-936q1 -16 1 -34v-18q-1 -28 -9.5 -53.5t-25 -46t-42.5 -28.5q-17 -7 -34 -7q-14 0 -30 5q-33 10 -49 41q-10 18 -23.5 29.5t-35.5 1.5q-10 -4 -17 -10l-14 -15q-78 -49 -173 -50h-4q-93 0 -171 44q-66 35 -108 92.5t-70 124.5q-23 72 -28 146zM217 475 v-16q0 -44 9 -89q11 -54 38 -98.5t69 -70.5q36 -23 86 -23h15q68 0 132.5 20.5t99.5 84.5q18 31 19 61.5t1 65.5v143q0 55 -17.5 98t-64.5 72q-53 33 -124 41q-18 2 -34 2q-50 0 -90 -18q-41 -16 -68.5 -46t-43 -67t-21.5 -79t-6 -81z" />
<glyph unicode="e" horiz-adv-x="923" d="M43 393q-3 25 -3 50q0 50 11 98q12 61 37 118.5t61.5 107.5t86 88t110.5 58t126 22h7q61 0 117 -16q59 -17 112.5 -53.5t90.5 -89.5q39 -53 60.5 -115.5t31.5 -125.5q5 -36 5 -63q0 -30 -24 -48q-16 -16 -48.5 -15t-55.5 1h-33h-92h-262q-23 0 -44.5 1t-41.5 -3 q-41 -4 -65 -32q-13 -16 -13 -35q0 -15 8 -34q10 -23 19.5 -43t29.5 -37q39 -41 95 -67q51 -20 104 -20.5t105 16.5q35 12 69.5 30.5t69.5 40.5q14 12 34.5 25.5t41 18.5t39 0t30.5 -29q4 -10 3 -10.5t-2 2.5l-2 7q-1 3 1 1q7 -19 8 -36q0 -20 -11 -36q-19 -31 -48 -57 q-63 -57 -135 -84q-76 -23 -161 -27q-17 -1 -34 -1q-67 0 -127 13q-96 20 -167.5 81t-106.5 153q-29 69 -37 145zM241 613q-1 -6 -2 -11q0 -7 3 -14q10 -20 36.5 -21.5t43.5 -1.5h88h192q12 0 30.5 1t36 5t27.5 16q9 9 9 25q0 40 -30 76q-26 31 -54 51q-47 35 -108 39 q-15 1 -30 1q-44 0 -84 -9q-53 -18 -90 -52t-61 -79q-2 -4 -1 -3t2 3t1 3t-2 -3q-4 -13 -7 -26z" />
<glyph unicode="f" horiz-adv-x="874" d="M47 846q-2 7 -2 15q0 14 7 29q11 24 28 36q23 14 46.5 16t43.5 12q29 12 39 36t12 53.5t0 59.5t2 52q14 104 79 181t173 94q26 4 52 4q38 0 74 -10q60 -15 108 -56q29 -25 58 -59q25 -29 25 -62q0 -7 -1 -14q-6 -31 -27 -42t-45.5 -9t-49 14t-40.5 27q-35 31 -73 45 q-13 5 -28 5q-27 0 -57 -18q-25 -14 -43 -34.5t-25 -51.5q-3 -31 -3 -61t3 -59q0 -23 3.5 -44.5t19.5 -37.5q27 -23 68 -25t75 -2h109q16 0 38.5 -3t44 -11t39 -20.5t21.5 -33.5q2 -7 3 -12q0 -9 -6 -18q-9 -14 -24.5 -24.5t-34 -17.5t-32.5 -9q-36 -8 -75 -8h-24 q-52 3 -100 3q-45 0 -84 -26q-8 -4 -24.5 -17.5t-16.5 -23.5v-45v-201v-266q0 -25 1.5 -53.5t-2 -55t-15.5 -49t-37 -35.5q-23 -13 -42 -13q-5 0 -9 1q-23 4 -39 20.5t-27.5 40t-13.5 46.5v67v246v235q0 27 -7 47.5t-19 43.5q-14 23 -32 29.5t-46 13.5q-48 10 -68 55z" />
<glyph unicode="g" horiz-adv-x="1024" d="M109 647q23 66 62.5 127.5t102.5 97.5q78 55 178 60h15q90 0 166 -45q12 -6 25.5 -16.5t27.5 -15.5t25.5 -3t21.5 20q25 33 51 49q17 10 41 10q13 0 27 -3q29 -6 48.5 -28.5t27.5 -51.5q12 -42 12 -89q0 -10 -1 -20q-3 -57 -3 -110v-551v-162q0 -47 -3 -91t-24 -85 q-23 -57 -62.5 -100t-86.5 -76q-76 -49 -165 -65q-45 -8 -89 -7.5t-87 7.5q-87 15 -164 61.5t-128 117.5q-23 31 -30 72q-2 11 -2 22q0 27 14 48q21 30 50 30q3 0 6 -1q34 -3 58 -19q25 -16 41.5 -35.5t34.5 -36.5q18 -16 36.5 -31.5t41.5 -29.5q53 -27 109 -31q8 -1 16 0 q48 0 96 21q37 16 75 44.5t54 69.5q8 23 7 49.5t-1 51.5v41q0 27 -5 52t-18.5 40.5t-39.5 7.5q-16 -6 -32.5 -18.5t-33.5 -22.5q-25 -12 -50.5 -19.5t-53.5 -11.5h-62q-47 2 -94 17.5t-88 42.5q-68 47 -106.5 117.5t-51.5 148.5q-20 84 -19 168q0 93 30 182zM260 444 q0 -41 7 -84t22.5 -80.5t42 -68.5t67.5 -49q45 -18 96.5 -18.5t98.5 17t86 49.5t57 77q4 8 3 7t-2 -5t-2 -7t1 5q13 30 13 67v11q-2 43 -2 77q0 27 1 55.5t-4 55.5q-20 98 -92.5 146.5t-171.5 48.5q-61 0 -103 -27t-68.5 -70t-39.5 -97q-11 -47 -10 -94v-16z" />
<glyph unicode="h" d="M62 1290q0 37 14 70q6 20 21.5 37.5t33.5 26.5q17 8 35 9h4q20 -1 41 -18q29 -23 39 -56.5t10 -68.5v-231v-125v-51q4 -18 17.5 -18.5t27.5 9.5q16 12 33.5 21.5t36.5 19.5q4 4 10 4.5t10 2.5q25 8 54 12q25 4 57.5 4t73.5 -10q14 0 30 -8q41 -14 90 -43q18 -14 36 -26.5 t34 -31.5q63 -66 88 -155t25 -181q1 -59 1 -117v-59q-1 -88 -1 -180q0 -25 -10.5 -50.5t-28 -44t-42 -25.5t-52.5 5q-23 8 -36.5 25.5t-19.5 38t-7 43t-1 45.5v211q0 72 -4 141.5t-39 132.5q-25 41 -63.5 67.5t-83.5 34.5q-18 3 -35 2l-55 -7q-45 -11 -80 -48 q-25 -25 -38.5 -53.5t-19.5 -61t-7 -65.5t-1 -65v-199q0 -27 1 -58.5t-1 -62.5t-10 -59.5t-29 -46.5q-20 -23 -44 -26q-5 -1 -10 -1q-18 0 -35 9q-22 11 -39 31.5t-23 47.5q-4 18 -5.5 35.5t-1.5 40.5v790v254q0 13 -0.5 40.5t-0.5 41.5z" />
<glyph unicode="i" horiz-adv-x="425" d="M104 133v664q0 59 30 100t67 41q41 0 72.5 -41t31.5 -100v-664q0 -53 -31.5 -93t-72.5 -40q-37 0 -67 40t-30 93zM104 1182q0 41 28 68.5t69 27.5t69.5 -27.5t28.5 -68.5t-28.5 -70t-69.5 -29t-69 29t-28 70z" />
<glyph unicode="j" horiz-adv-x="692" d="M41 -305q14 31 38.5 40t54.5 5t58.5 -15.5t49.5 -21.5q31 -15 60 -15q14 0 28 4q41 11 59 64q9 34 9 71q0 7 -1 14q-2 44 -2 85v187v348v274q0 27 2 61.5t12.5 65.5t30 52.5t56.5 21.5t57 -19.5t29.5 -48t11.5 -61.5t2 -59v-256v-363v-203q0 -43 3 -88q1 -15 1 -30 q0 -30 -4 -60q-10 -61 -42 -112.5t-78 -87t-104 -51.5q-32 -9 -67 -8q-27 0 -55 5q-29 6 -73 22.5t-81 42t-55 60.5q-9 17 -9 36.5t9 39.5zM395 1188q0 41 30 70.5t71 29.5t70.5 -29.5t29.5 -70.5t-29.5 -73t-70.5 -32t-71 32t-30 73z" />
<glyph unicode="k" horiz-adv-x="835" d="M66 141v1151q0 59 27.5 100.5t68.5 41.5t69.5 -41t28.5 -101v-594q0 -59 28 -68q5 -2 10 -2q24 0 54 34l172 184q37 41 75 72.5t85 31.5q20 0 39.5 -8t30 -22.5t10.5 -34t-19 -39.5l-245 -264q-18 -20 -27.5 -47t-9.5 -54.5t9 -53.5t28 -46l264 -270q20 -22 19 -44 q0 -17 -9 -30q-10 -14 -29.5 -22.5t-42.5 -8.5q-47 0 -82.5 32t-76.5 73l-185 190q-33 33 -58 33q-6 0 -11 -1q-29 -9 -29 -69v-123q0 -59 -28.5 -100t-69.5 -41t-68.5 41t-27.5 100z" />
<glyph unicode="l" horiz-adv-x="491" d="M84 104v191v997q0 59 28.5 100.5t69.5 41.5t69 -41t28 -101v-997v-12q0 -51 12 -78t27.5 -37t29.5 -10t17 2q33 -4 56 -25.5t23 -54.5t-24.5 -56.5t-61.5 -23.5h-79h-84q-2 0 -19.5 2t-38 11.5t-37 30.5t-16.5 60z" />
<glyph unicode="m" horiz-adv-x="1363" d="M43 168q0 88 3 176t3 180v244q0 31 2 59.5t15 53.5q29 51 75 53h4q45 0 74 -49q8 -10 15.5 -18.5t21.5 -8.5q20 6 37 23q23 16 49.5 29.5t52.5 19.5q28 7 56.5 7t57.5 -7q58 -14 103 -49q14 -12 28.5 -26.5t28 -25t30 -13.5t36.5 9q29 16 53.5 39t53.5 39 q16 14 39.5 20.5t46.5 10.5q26 5 51 5l84 -14q68 -24 119 -67q86 -72 119.5 -171t33.5 -204v-190q0 -43 2 -89q1 -15 1 -31q0 -30 -3 -60q-4 -35 -22.5 -67t-55.5 -42q-10 -3 -19 -3q-14 0 -29 5q-26 8 -42 31q-31 37 -30 89v99v187v74q0 40 -6.5 78t-20.5 75t-41 66 q-35 39 -75 46q-12 2 -24 2q-28 0 -55 -12q-39 -16 -69.5 -49t-42.5 -74q-14 -50 -14 -99q0 -9 1 -18q3 -58 3 -118v-176q0 -29 -1 -61.5t-9.5 -61.5t-27 -51.5t-53.5 -28.5q-7 -1 -13 -1q-17 0 -32 7q-20 10 -34.5 28.5t-21.5 42t-7 46.5v199q0 72 2 143v12q0 66 -21 129 q-6 29 -23 65t-48 52q-38 27 -82 27h-11q-50 -4 -92 -41q-29 -25 -44 -54.5t-21 -63.5t-6 -70v-68q-4 -51 -5 -102.5t-1 -102.5q0 -25 2 -55.5t0 -61.5t-9.5 -58.5t-27.5 -45.5q-23 -23 -47 -27q-7 -1 -14 -1q-17 0 -32 7q-22 10 -38.5 31.5t-22.5 48.5q-8 16 -9 35.5 t-1 42.5zM422 758h6h-6zM469 750q6 -4 13 -8.5t18 -10.5l-17.5 10.5t-13.5 8.5z" />
<glyph unicode="n" horiz-adv-x="894" d="M37 113v82v202v385q0 35 9 69t36 60q16 16 39 23q8 2 17 2l28 -6q20 -10 30.5 -26.5t22.5 -33.5q10 -12 19.5 -13t17.5 3t16.5 11.5t18.5 11.5q12 10 28.5 19t32.5 16q45 16 90 17h13q38 0 75 -5q131 -16 213 -107q66 -66 90.5 -155.5t24.5 -182.5v-249v-89 q0 -47 -18 -88q-16 -31 -48 -47q-16 -8 -33 -8t-34 8q-27 10 -40 29.5t-18 44.5t-5 50v48v207q0 72 -7.5 143.5t-50.5 133.5q-27 41 -69.5 63.5t-92.5 22.5q-47 0 -88 -15.5t-69 -52.5q-20 -27 -30.5 -57.5t-16 -62t-5.5 -64.5v-64v-211q0 -29 1 -61q0 -5 1 -11 q0 -27 -5 -54q-5 -32 -20 -58.5t-48 -40.5q-12 -4 -24 -4t-22 4q-22 8 -38.5 25.5t-26.5 40t-14 45.5z" />
<glyph unicode="o" d="M31 465q0 86 27.5 169t82.5 148q53 72 142 111q41 23 85 33t85 10q47 0 92 -10.5t86 -32.5q41 -18 73.5 -46t65.5 -65q55 -66 83 -148.5t28 -168.5q0 -84 -28 -167t-83 -151q-33 -33 -65.5 -60.5t-73.5 -49.5q-84 -37 -178 -37q-41 0 -85 9t-85 28q-41 23 -77 50.5 t-65 59.5q-55 68 -82.5 151t-27.5 167zM209 465q0 -61 14.5 -108.5t32.5 -79t36.5 -49t24.5 -21.5q10 -10 18.5 -14.5t18.5 -8.5q23 -14 49.5 -19t49.5 -5q29 0 55.5 5t48.5 19q10 4 18.5 8.5t18.5 14.5q31 25 53 61q20 33 37.5 81t17.5 116t-17 117t-38 82q-23 37 -53 63 l12 -6q-10 10 -22.5 15t-26.5 16q-23 14 -49.5 19t-54.5 5q-23 0 -49.5 -5t-49.5 -19q-10 -4 -18 -9.5t-19 -15.5q-6 -4 -24.5 -21.5t-36.5 -50t-32.5 -80t-14.5 -110.5z" />
<glyph unicode="p" horiz-adv-x="942" d="M67 797q1 27 7 52t21.5 47t39.5 34q19 6 38 5q15 0 30 -3q33 -8 53 -39q10 -16 22.5 -31.5t34.5 -5.5q10 4 17.5 11t15.5 12q78 55 173 57h8q91 0 169 -43q70 -39 114 -98.5t67.5 -130t28.5 -146.5q2 -29 2 -58q0 -46 -5 -89q-6 -86 -39 -164t-100 -137 q-41 -35 -88 -52.5t-101 -23.5q-25 -3 -49 -4q-34 0 -66 7q-56 11 -102 46q-27 20 -49 20t-35 -34q-4 -16 -5 -34t-1 -34v-211q0 -31 2 -64q1 -14 1 -27q0 -20 -2 -40q-3 -33 -15 -61.5t-39 -49.5q-20 -16 -41 -17h-4q-18 0 -35 8q-18 9 -33.5 26.5t-21.5 40.5 q-12 33 -12 78v155v951q-1 14 -2 30q1 8 1 17zM260 377q0 -55 19.5 -99.5t66.5 -72.5q51 -35 120 -42q17 -2 33 -2q50 0 95 17q39 16 66.5 47t44 69t23.5 80t9 83q0 49 -12 102t-40 98t-70 72q-39 25 -94 25h-9q-66 0 -132.5 -20.5t-96.5 -84.5q-16 -35 -19.5 -63.5 t-3.5 -65.5v-143z" />
<glyph unicode="q" horiz-adv-x="972" d="M49 501q2 48 12 91q16 59 42 114.5t63 100.5q57 70 142 103q65 26 131 26q20 0 40 -2q41 -6 80 -21.5t72 -42.5q12 -10 26.5 -15t30.5 7q10 10 18.5 25.5t20.5 30.5q23 18 53 19h4q29 0 52 -15q39 -23 47 -62t12 -74q3 -30 3 -58q0 -14 -1 -28q-2 -41 -2 -82v-931 q0 -41 -2 -83t-27 -77q-27 -38 -67 -38h-6q-45 3 -74 46q-20 33 -21.5 70t-1.5 78v194q0 39 3 86q0 6 1 11q0 40 -20 71q-10 18 -24.5 19.5t-28 -6t-27.5 -17.5t-25 -16q-33 -18 -70.5 -26.5t-76.5 -8.5q-78 0 -147 30q-63 31 -111.5 82.5t-75.5 110.5q-18 47 -27.5 97 t-13.5 102q-5 31 -4 65q-1 12 0 24zM227 415q6 -69 33 -126q16 -35 43 -63.5t62 -45.5q33 -17 69 -17h4q39 1 78 5q59 6 110.5 40t69.5 95q4 29 5 56.5t1 56.5v135q0 72 -39.5 124t-113.5 68q-10 4 5 1t28.5 -6t12.5 -4t-46 9q-49 12 -100 12h-22q-62 -3 -110 -44 q-37 -33 -57 -76t-27 -88q-8 -42 -8 -87q0 -22 2 -45z" />
<glyph unicode="r" horiz-adv-x="776" d="M49 184q2 31 2 60v172v383q0 20 5 44.5t17.5 45t31 34t45.5 13.5t47 -16.5t32 -38.5q6 -16 16.5 -26.5t26.5 3.5q12 10 22.5 20.5t24.5 20.5q20 12 41 19.5t41 11.5q35 8 72 8q21 0 43 -3q59 -7 113 -30q47 -25 49 -25.5t-12 6.5l-31 15q-16 8 -6 4q23 -12 49.5 -32.5 t46.5 -47t30 -56.5q5 -16 5 -32q0 -14 -4 -28q-8 -23 -27.5 -36.5t-42.5 -13.5q-27 -4 -48.5 9.5t-43.5 27.5q-37 27 -81 40q-27 8 -56 8q-17 0 -35 -3q-53 -12 -98 -49t-64 -90q-12 -41 -12 -87v-87v-246q0 -18 1 -38.5t-5 -43.5q-4 -25 -18.5 -47t-34 -36.5t-43.5 -16.5 h-4q-21 0 -44 18q-25 20 -36 47t-14 58q-2 18 -2 37q0 12 1 24z" />
<glyph unicode="s" horiz-adv-x="768" d="M31 294q6 24 35 42q27 14 50 9t42.5 -18.5t37 -34t33.5 -36.5q35 -39 85.5 -65.5t107.5 -30.5q20 0 48 9t51.5 26.5t34.5 41t1 52.5q-12 29 -40 44t-56 27q-39 23 -78 43.5t-78 45.5q-27 16 -55.5 32.5t-55 36t-48 42t-33.5 52.5q-15 35 -16 72q0 41 17 79 q15 36 40.5 66.5t58.5 51.5q70 45 163 54q18 2 35 2q73 0 134 -32q47 -23 91 -56.5t73 -80.5q12 -23 14 -46.5t-10 -41.5q-16 -27 -42 -38t-50 -1q-33 10 -49.5 33.5t-34.5 42.5q-20 23 -47 39t-56 20q-15 4 -30 4q-29 0 -60 -13q-47 -19 -59 -67q-8 -25 2 -43t28.5 -32.5 t40 -25.5t37.5 -19l109 -55q55 -28 108 -56q14 -10 7 -6t-17 10t-12 7t22 -11q33 -23 61.5 -46.5t45.5 -57.5q28 -49 28 -100q0 -24 -7 -48q-19 -76 -76 -129q-37 -31 -82 -51.5t-95 -28.5q-39 -7 -79 -6h-20q-50 2 -93 14q-63 18 -114.5 55.5t-92.5 84.5q-16 18 -31.5 41.5 t-22.5 48.5q-4 13 -4 26q0 11 3 22z" />
<glyph unicode="t" horiz-adv-x="768" d="M33 862q0 33 23.5 53.5t56.5 20.5t56.5 39t23.5 90t31.5 87t72.5 36q35 0 65.5 -36t30.5 -87t40 -90t95 -39h86q55 0 95.5 -20.5t40.5 -53.5t-40 -56.5t-96 -23.5h-86q-55 0 -95 -40t-40 -99v-508q0 -55 -30.5 -95t-65.5 -40q-41 0 -72.5 40t-31.5 95v508q0 59 -24 99 t-56 40q-33 0 -56.5 23.5t-23.5 56.5z" />
<glyph unicode="u" horiz-adv-x="946" d="M63 598q2 72 3 147q0 23 -1.5 48.5t4 50t17.5 46t37 36.5q21 12 41 11q19 0 37 -10q37 -22 51 -63q13 -36 12 -77v-12q-2 -48 -2 -87v-190q0 -37 4 -78t14.5 -79t31 -70.5t55.5 -55.5q35 -25 76 -31q18 -3 37 -2q24 0 48 4q61 10 94 47t48.5 87.5t18.5 107.5t3 107v247 q0 29 3 57.5t20 53.5q14 25 36 36q18 10 37 9h8q24 -2 44 -17.5t32 -41.5q19 -40 20 -87q0 -8 -1 -17q-4 -56 -4 -107v-181v-168v-133q0 -25 -1 -50t-9 -50q-6 -23 -19.5 -43t-32 -31.5t-41 -11.5t-45.5 18q-18 16 -25 36t-22 42q-8 14 -19 -1t-16 -23q-16 -18 -40.5 -31.5 t-49.5 -22.5q-25 -10 -50 -14t-50 -4h-41q-18 0 -35 4q-27 0 -57.5 12.5t-52.5 22.5q-55 27 -105 76q-61 68 -85.5 156.5t-24.5 183.5q-3 48 -3 95q-1 24 0 48z" />
<glyph unicode="v" horiz-adv-x="897" d="M25 809q-8 24 -9 45q0 25 13 45q23 37 63 37q41 0 76 -37t57 -90l164 -426q23 -55 54.5 -55t50.5 55l170 426q18 53 55 90t72 37q41 0 65 -37q13 -19 13 -43q0 -22 -11 -47l-268 -676q-18 -53 -61.5 -93t-84.5 -40t-85 40t-66 93z" />
<glyph unicode="w" horiz-adv-x="1261" d="M25 809q-5 19 -5 36q0 32 17 56q27 37 67 37q37 0 67 -37t42 -92l104 -356q14 -53 38 -53.5t42 53.5l105 356q14 55 53 92t76 37q41 0 81 -37t54 -92l104 -356q14 -53 38 -53.5t42 53.5l103 356q14 55 41.5 92t68.5 37q37 0 65 -37q17 -22 16 -51q0 -19 -7 -41l-197 -680 q-14 -55 -53 -92t-80 -37q-37 0 -75.5 37t-53.5 92l-104 354q-18 55 -42 55.5t-38 -55.5l-105 -354q-14 -55 -54 -92t-81 -37q-37 0 -75.5 37t-53.5 92z" />
<glyph unicode="x" horiz-adv-x="778" d="M17 70q0 19 16 41l164 243q37 47 36.5 114t-36.5 114l-164 243q-15 21 -16 41v2q1 20 12.5 36t31 24t39.5 8q35 0 68 -32t65 -79l68 -96q33 -51 80 -51t80 51l67 96q33 47 63 79t71 32q20 0 39.5 -8t29.5 -23.5t10 -36t-18 -43.5l-164 -243q-33 -47 -33 -114t33 -114 l164 -243q18 -23 18 -43.5t-10 -36t-29.5 -23.5t-39.5 -8q-41 0 -71 31.5t-63 79.5l-67 98q-33 49 -80 49t-80 -49l-68 -98q-33 -47 -65.5 -79t-67.5 -32q-20 0 -39.5 8t-30.5 24q-13 17 -13 38z" />
<glyph unicode="y" horiz-adv-x="980" d="M54 898q13 17 34 27.5t45 10.5q43 0 76 -37t55 -90l164 -326q29 -53 65.5 -53t59.5 53l158 326q25 53 57.5 90t73.5 37q25 0 46 -10.5t34.5 -27.5t14.5 -40v-3q0 -21 -13 -46l-258 -547q-12 -29 -22.5 -53.5t-20.5 -40.5l-19 -37q-8 -16 -16 -37q-16 -35 -45 -90 l-185 -389q-23 -53 -56.5 -89t-74.5 -36q-25 0 -45 9t-33.5 26.5t-15.5 40t12 49.5l183 389q23 53 22.5 127t-22.5 131l-277 547q-13 23 -12 43q-1 26 15 46z" />
<glyph unicode="z" horiz-adv-x="882" d="M41 856q0 33 43 56.5t96 23.5h527q59 0 76 -32q6 -11 6 -24q0 -24 -21 -55l-391 -557q-21 -32 -22 -57q0 -13 6 -25q17 -33 77 -32h269q59 0 100 -24t41 -56q0 -33 -41 -53.5t-100 -20.5h-580q-55 0 -72 32q-5 11 -5 23q0 25 22 56l391 557q21 31 21 55q0 13 -6 26 q-17 34 -77 33h-221q-53 0 -96 20.5t-43 53.5z" />
<glyph unicode="&#xaa;" horiz-adv-x="862" d="M58 286q-1 12 -1 24q0 49 17 96q20 55 59 93t88 60.5t105.5 31.5t109.5 9q57 0 111 -12q14 -4 33.5 -11.5t31.5 3.5q8 6 8.5 18t-3 25.5t-9.5 27t-8 21.5q-16 39 -49 67q-43 43 -100 44h-5q-55 0 -104 -21q-23 -8 -41 -19.5t-36.5 -21.5t-39 -17.5t-45.5 -5.5 q-39 4 -56 29q-9 13 -9 29q0 15 8 32q16 41 57 70t82 45q84 34 184 34h6q103 -1 187 -42q88 -47 134 -137q41 -80 41 -166q0 -11 -1 -23q5 -49 5 -101v-17q-1 -61 -1 -121v-193q0 -18 -4 -40.5t-14.5 -43t-26.5 -36t-39 -17.5q-6 -1 -12 -1q-15 0 -31 7q-23 10 -37 25 q-10 10 -16 13t-21 -5q-33 -23 -72.5 -31t-80.5 -8q-15 -1 -30 -1q-30 0 -62 5q-47 8 -88 19q-59 16 -110.5 53t-80.5 94q-29 54 -34 116zM221 258q12 -35 38 -56.5t58.5 -33.5t68.5 -16.5t67 -4.5q49 -2 52 -2t-17.5 0t-52.5 1t-48 1t-6 0h72q9 -1 18 0q43 0 88 16 q55 19 76 73q4 14 7 31q1 7 1 15q0 9 -2 17q-4 66 -53 102.5t-109 42.5q-14 1 -28 1q-22 0 -45 -2q-39 -3 -74 -14t-63.5 -33.5t-43.5 -57.5q-9 -21 -9 -44q0 -18 5 -36z" />
<glyph unicode="&#xad;" horiz-adv-x="980" d="M35 739q0 41 52 71t124 30h502q72 0 123 -30t51 -71t-51.5 -68.5t-122.5 -27.5h-502q-72 0 -124 27.5t-52 68.5z" />
<glyph unicode="&#xb2;" horiz-adv-x="980" d="M84 94q0 16 9 33.5t20 32.5q29 37 56.5 75.5t55.5 77.5q53 84 108.5 162t112.5 164q29 37 56.5 76t54.5 80q14 20 28.5 39.5t28.5 39.5q10 18 22.5 36t25.5 38q43 72 26 154q-16 37 -38.5 68.5t-53.5 52.5q-33 20 -71 26t-73.5 -1t-68.5 -25.5t-55 -48.5 q-49 -72 -39 -154q6 -23 15 -43.5t20 -40.5q12 -14 21 -31.5t13 -40.5q10 -41 -16.5 -68.5t-62.5 -27.5q-39 0 -62.5 23.5t-46.5 52.5q-43 66 -56.5 143.5t7.5 155.5q16 76 61 136t111 97q137 82 287 45q72 -16 132 -60t97 -108q43 -66 56.5 -142.5t-1.5 -152.5 q-12 -37 -31.5 -71.5t-41.5 -69.5q-29 -37 -57.5 -72.5t-57.5 -76.5q-57 -80 -114.5 -156t-115.5 -158q-12 -16 -25 -31.5t-24 -31.5q-10 -16 -11 -31.5t11 -26.5q14 -16 35 -18t41 -2h92h195h49h20h9q20 -4 40.5 -10t34.5 -25q12 -6 11.5 -6t-5 3l-7.5 5t1 -2q4 0 6.5 -1 t4.5 -1q-6 2 -15 10q16 -10 27.5 -30.5t7.5 -40.5q-10 -29 -33.5 -44.5t-46.5 -21.5t-46 -7t-46 -1h-96h-191h-196h-99h-49h-20q-10 0 -15 4q-28 18 -22 49z" />
<glyph unicode="&#xb3;" horiz-adv-x="960" d="M55 444q6 31 19.5 62t42.5 43q33 12 60.5 -6.5t39.5 -44.5q14 -31 15 -63t8 -62q10 -35 25.5 -67t39.5 -54q51 -45 124 -59.5t136 8.5q59 25 98 75t50 113q6 59 -18.5 117.5t-73.5 95.5q-27 23 -55.5 34t-53.5 34q-27 18 -40 45.5t-3 58.5q12 33 40 50.5t56 29.5 q29 16 52.5 35.5t39.5 48.5q33 51 30 108.5t-34 108.5q-35 47 -88 72.5t-112 19.5q-57 -10 -106.5 -48t-74.5 -93q-12 -35 -12 -72v-36q0 -17 -4 -35q-10 -23 -32.5 -36.5t-47.5 -13.5q-31 2 -50.5 19.5t-28.5 44.5t-12 55.5t-1 50.5q6 66 42 129.5t83 110.5 q45 45 104.5 71.5t122 35t127 -5t119.5 -48.5q59 -37 101 -90t63.5 -116.5t22.5 -131t-23 -133.5q-10 -29 -25.5 -60.5t-42.5 -58.5l-12 -12q-6 -6 -16 -12q-4 0 -8.5 -5t-0.5 -12q4 -4 9.5 -7t11.5 -9q74 -74 108 -164q0 -4 10.5 -35.5t16.5 -68.5v-35v-29v-12 q-14 -123 -89 -221t-192 -139q-66 -23 -134 -22t-132.5 22.5t-120 62.5t-94.5 100q-39 57 -62.5 123.5t-17.5 132.5z" />
<glyph unicode="&#xb9;" horiz-adv-x="499" d="M35 1137q6 23 18.5 37t22.5 30q29 39 55.5 76t54.5 72q27 35 62 57q10 4 20.5 9t20.5 9q16 4 24 5q31 0 56.5 -20.5t42.5 -47.5q6 -12 5 -10l-4 8q-3 6 -5 9t4 -7q2 -2 3 -5t3 -5l-6 9q-2 3 -4 7q16 -29 20 -59.5t4 -65.5v-184v-363v-391v-98v-41q0 -20 -2 -41 q-4 -37 -18.5 -72t-49.5 -51q-39 -14 -66.5 9.5t-43.5 58.5q-8 23 -9 45t-1 45v94v391v389q0 18 -1 41t-12 41q-10 18 -20 5t-21 -21q-25 -39 -63 -41q-39 -6 -64 12q-14 12 -22 28t-4 36z" />
<glyph unicode="&#xba;" d="M31 465q0 86 27.5 169t82.5 148q53 72 142 111q41 23 85 33t85 10q47 0 92 -10.5t86 -32.5q41 -18 73.5 -46t65.5 -65q55 -66 83 -148.5t28 -168.5q0 -84 -28 -167t-83 -151q-33 -33 -65.5 -60.5t-73.5 -49.5q-84 -37 -178 -37q-41 0 -85 9t-85 28q-41 23 -77 50.5 t-65 59.5q-55 68 -82.5 151t-27.5 167zM209 465q0 -61 14.5 -108.5t32.5 -79t36.5 -49t24.5 -21.5q10 -10 18.5 -14.5t18.5 -8.5q23 -14 49.5 -19t49.5 -5q29 0 55.5 5t48.5 19q10 4 18.5 8.5t18.5 14.5q31 25 53 61q20 33 37.5 81t17.5 116t-17 117t-38 82q-23 37 -53 63 l12 -6q-10 10 -22.5 15t-26.5 16q-23 14 -49.5 19t-54.5 5q-23 0 -49.5 -5t-49.5 -19q-10 -4 -18 -9.5t-19 -15.5q-6 -4 -24.5 -21.5t-36.5 -50t-32.5 -80t-14.5 -110.5z" />
<glyph unicode="&#xc0;" horiz-adv-x="1153" d="M22.5 31q16.5 -39 57.5 -39t84 39t59 94l29 82q20 55 73.5 94t112.5 39h273q59 0 113.5 -39t72.5 -94l27 -82q20 -55 62 -94t83 -39t57.5 39t-2.5 94l-403 1190q-20 55 -62.5 94t-83.5 39t-83.5 -39t-61.5 -94l-405 -1190q-19 -55 -2.5 -94zM392 1749q1 18 18 41 q16 20 34.5 22.5t35 -3t29.5 -14.5t17 -13l203 -137q8 -6 22.5 -30t-1.5 -46q-10 -12 -25.5 -15.5t-31 1t-29 10.5t-19.5 12l-209 102q-8 6 -19 15.5t-18.5 23t-6.5 31.5zM397 631l133 389q18 55 44 55t47 -55l133 -389q18 -55 -9.5 -94t-87.5 -39h-163q-59 0 -87 39t-10 94 z" />
<glyph unicode="&#xc1;" horiz-adv-x="1153" d="M24.5 30q-16.5 38 4.5 93l405 1198q18 55 61.5 94t84.5 39t85 -39t62 -94l406 -1198q20 -55 3.5 -93t-57.5 -38t-85 38t-62 93l-29 84q-18 55 -72.5 94t-113.5 39h-275q-29 0 -57.5 -10.5t-54 -28.5t-45 -43t-27.5 -51l-29 -84q-20 -55 -62 -93t-85 -38q-41 0 -57.5 38z M398.5 1622q15.5 23 21.5 31l205 137q4 4 17 13t29.5 14.5t35 3.5t34.5 -23q18 -23 19.5 -41t-5.5 -31.5t-20 -22.5l-20 -15l-209 -103q-6 -6 -19.5 -13t-29 -10t-30.5 -1t-26 14q-18 24 -2.5 47zM401 633q-18 -55 9.5 -94t87.5 -39h166q59 0 86.5 39t9.5 94l-135 391 q-18 57 -44 57t-46 -57z" />
<glyph unicode="&#xc2;" horiz-adv-x="1153" d="M22.5 29q16.5 -39 59.5 -39q41 0 83 39t62 94l29 84q8 27 27.5 51.5t45 42.5t54.5 28.5t57 10.5h275q59 0 114.5 -40t73.5 -93l29 -84q16 -55 60 -94t85 -39t57.5 39t-4.5 94l-405 1198q-18 53 -61 93t-86 40q-41 0 -83 -40t-61 -93l-407 -1198q-21 -55 -4.5 -94z M344 1624q6 27 29 45l149 123q23 18 55.5 18t55.5 -18l153 -127q23 -16 28 -43t-11 -47q-16 -18 -43 -18.5t-49 16.5l-78 65q-23 18 -55.5 18.5t-55.5 -18.5l-76 -61q-23 -18 -49 -18t-43 20q-16 18 -10 45zM401 631l131 393q20 55 47 55t46 -55l133 -393q18 -55 -9.5 -94 t-84.5 -39h-168q-59 0 -87 39t-8 94z" />
<glyph unicode="&#xc3;" horiz-adv-x="1153" d="M28.5 33q-16.5 39 2.5 94l405 1190q18 55 60.5 95t85.5 40q41 0 83 -40t62 -95l403 -1190q18 -55 2 -94t-57 -39t-83 39t-62 94l-27 82q-20 55 -73.5 95t-112.5 40h-273q-57 0 -111 -40t-75 -95l-29 -82q-16 -55 -59 -94t-84 -39t-57.5 39zM291 1647.5q0 15.5 7 31 t19.5 29.5t22.5 23q12 10 19.5 12t17.5 6q14 4 27.5 7t29.5 7q57 6 113 -16q23 -10 43 -22.5t39 -28.5q18 -16 42.5 -29.5t51.5 -13.5q14 0 27 4l24 8q10 6 18.5 13.5t18.5 13.5q37 27 78 0q6 0 6 -6q16 -12 18 -31t-2 -35q-8 -20 -14 -29q-8 -8 -17.5 -15t-19.5 -13 q-47 -33 -102.5 -41.5t-108.5 8.5q-27 10 -50.5 24.5t-45.5 30.5q-18 14 -37.5 27.5t-42.5 17.5q-29 4 -51 -8q-8 -4 -15.5 -7t-15.5 -7q-23 -6 -45 -4t-39 16q-16 12 -16 27.5zM401 633q-16 -53 10.5 -93t86.5 -40h166q59 0 85.5 40t10.5 93l-133 391q-18 55 -46 55 t-44 -55zM408 1614l6 6z" />
<glyph unicode="&#xc4;" horiz-adv-x="1153" d="M20.5 31q16.5 -39 57.5 -39t84 39t61 94l29 82q18 55 72.5 94t111.5 39h273q59 0 113.5 -39t72.5 -94l29 -82q18 -55 61 -94t84 -39t57.5 39t-4.5 94l-403 1190q-18 55 -61.5 94t-84.5 39t-84 -39t-61 -94l-403 -1190q-21 -55 -4.5 -94zM270 1698q0 39 24.5 68.5 t61.5 37.5q39 6 73 -14.5t46 -54.5q14 -37 0 -74t-47 -53q-35 -20 -73 -13t-62 37q-23 33 -23 66zM395 629l133 391q18 55 45 55t45 -55l134 -391q18 -53 -9.5 -92t-85.5 -39h-168q-57 0 -84.5 39t-9.5 92zM666 1698q0 39 24.5 68.5t61.5 37.5q39 6 71.5 -14.5t46.5 -54.5 q12 -37 -1 -74t-46 -53q-35 -20 -72.5 -13t-62.5 37q-22 33 -22 66z" />
<glyph unicode="&#xc5;" horiz-adv-x="1153" d="M22.5 30q16.5 -38 57.5 -38t85 38t60 95l29 82q18 55 73.5 94t112.5 39h275q59 0 113.5 -39t72.5 -94l29 -82q18 -57 61 -95t84 -38t58.5 38t-3.5 95l-405 1196q-20 55 -63.5 94t-83.5 39q-41 0 -83 -39t-63 -94l-405 -1196q-21 -57 -4.5 -95zM397 1675q0 76 52.5 128 t128.5 52t129 -52t53 -128t-53.5 -129t-128.5 -53q-76 0 -128.5 53t-52.5 129zM399 633l133 393q18 53 45 53t46 -53l135 -393q18 -55 -9.5 -95t-86.5 -40h-168q-57 0 -85 40t-10 95zM485 1675q0 -39 27 -66.5t66 -27.5q41 0 67.5 27.5t26.5 66.5t-27 66.5t-67 27.5 q-39 0 -66 -27.5t-27 -66.5z" />
<glyph unicode="&#xc6;" horiz-adv-x="1677" d="M19.5 27.5q-13.5 35.5 19.5 83.5l776 1204l4 4q0 2 2 6q10 16 25 31l24 24l25 21q20 16 40.5 22.5t37.5 10.5h57h148h335q57 0 98.5 -22.5t41.5 -55.5t-41 -56.5t-99 -23.5h-335q-59 0 -99.5 -40t-40.5 -97v-144q0 -59 40 -100t100 -41h266q59 0 99 -22.5t40 -55.5 t-40 -55.5t-99 -22.5h-266q-59 0 -99.5 -41t-40.5 -100v-268q0 -57 40 -98t100 -41h335q57 0 98.5 -23t41.5 -55q0 -33 -41 -56.5t-99 -23.5h-335h-154h-23q-53 0 -84.5 18.5t-49 45t-22.5 53t-7 43.5v16v86q0 25 -9.5 39t-19.5 20q-12 8 -29 11h-297q-25 0 -45 -10.5 t-35 -20.5q-18 -12 -30 -29l-97 -153q-16 -25 -39.5 -46.5t-50 -38t-53.5 -25.5t-51 -9q-49 0 -62.5 35.5zM545 513q0 -11 8 -20.5t31 -9.5h190q23 0 36 10.5t19 22.5q8 14 9 35v162v215q0 25 -3.5 34t-8.5 9t-11 -6.5t-12 -14.5l-242 -389l-2 -6q-4 -6 -9 -18.5t-5 -23.5z " />
<glyph unicode="&#xc7;" horiz-adv-x="999" d="M54 869.5q-1 50.5 3 99.5q12 127 72.5 241.5t177.5 173.5q55 29 121 40.5t131.5 7t127 -26t112.5 -59.5q33 -25 69.5 -66t57 -86t15.5 -89t-54 -77q-35 -23 -69 -17.5t-50 46.5q-20 47 -44 87t-73 64q-51 27 -115.5 29t-117.5 -14q-59 -18 -95 -63.5t-57 -98.5 q-23 -63 -22 -128v-130v-189q0 -51 -3 -102t5 -102q10 -57 40.5 -107.5t86.5 -75.5q59 -25 123.5 -28.5t124.5 12.5q49 14 90 48t57 85q8 27 29.5 48.5t52.5 21.5q37 -2 65.5 -31t34.5 -64q4 -27 -4 -54t-23.5 -53t-34 -48.5t-36.5 -40.5q-63 -61 -148.5 -91t-175.5 -30 l-36 -94q-2 -2 -2.5 -6t6.5 -8q16 -10 34.5 -18.5t38.5 -8.5q29 0 52 14q10 4 17 11.5t17 13.5q16 10 38 10t38 -10q4 -2 8 -6q27 -25 17 -66l-7 -14q-3 -6 -8 -13q-8 -10 -17 -16t-19 -12q-47 -31 -100.5 -40t-106.5 9q-51 14 -97 53l-24 19q-16 14 -20.5 27.5t-0.5 23.5 q0 8 2 10l4 4l11 27l20 49l21 51l-31 6q-125 33 -206 123t-109 213q-12 55 -13 112v114v190q0 49 -1 99.5zM846 414h4h-4z" />
<glyph unicode="&#xc8;" d="M70 1257.5q2 -61.5 2 -112.5v-94v-625v-121q0 -41 -1 -82t3 -80q4 -31 15 -58.5t34 -47.5q20 -16 45 -24.5t50.5 -11.5t52 -2t51.5 1h356q39 0 80 1t76 17q27 10 44 35t-1 53q-18 31 -57.5 41.5t-71.5 10.5h-209q-29 0 -59.5 -2t-60.5 1t-57.5 11t-48.5 31 q-23 23 -32 52.5t-11 62t0 66.5t2 62q0 33 -1 67t4.5 65.5t20.5 59.5t48 46q25 14 50.5 16t54.5 2h135h94q16 0 40.5 3.5t46 12.5t37 24.5t15.5 37.5q0 23 -15.5 38t-37 24.5t-46 12.5t-40.5 3h-94h-135q-29 0 -54.5 2t-50.5 16q-35 18 -50 49t-20.5 66t-3.5 72t2 69 q0 39 12.5 73t45.5 56q25 16 50.5 21.5t53.5 5.5h258q20 0 41 -1t43 3q16 2 40 9.5t42.5 20.5t25.5 31.5t-7 41.5q-16 27 -45 38t-63 14t-67.5 1t-60.5 -2h-227h-86q-31 0 -65 2t-64 -2q-31 -6 -58.5 -24.5t-44.5 -47.5q-28 -49 -26 -110.5zM269 1744.5q1 18.5 18 41.5 q16 20 34.5 22t35 -4t29.5 -15t17 -13l207 -138q6 -8 21.5 -30.5t-0.5 -46.5q-10 -12 -25.5 -14.5t-31 0.5t-29 10.5t-19.5 13.5l-211 102l-20 16q-12 9 -19.5 23t-6.5 32.5z" />
<glyph unicode="&#xc9;" d="M69 1251.5q1 28.5 6 57t19 53.5q33 57 103 70q31 4 63.5 2t63.5 -2h86h227q27 0 59.5 2t66.5 -1t62.5 -14.5t44.5 -38.5q14 -23 7 -40t-25 -30.5t-43 -21.5t-41 -10q-20 -2 -41 -2h-41h-254q-29 0 -55.5 -4t-48.5 -21q-35 -25 -47.5 -57.5t-12.5 -71.5q0 -33 -2 -69.5 t3 -71.5t20.5 -64.5t50.5 -48.5q25 -16 51.5 -17t52.5 -1h136h92q16 0 40.5 -3t46 -12.5t37 -24.5t15.5 -38t-15.5 -38t-37 -24.5t-46 -12.5t-40.5 -3h-92h-136q-27 0 -53 -2t-51 -16q-33 -18 -48.5 -46t-20.5 -59.5t-4 -65.5t1 -65q0 -29 -2 -62.5t0 -66t11.5 -62.5 t31.5 -52q20 -23 48 -31t58.5 -10t60.5 0t59 2h204q35 0 73 -11.5t58 -40.5q18 -29 0 -53t-43 -35q-35 -16 -74.5 -17t-80.5 -1h-355q-49 0 -102 1t-92 36q-23 20 -35 48t-16 56q-4 41 -2 81t2 81v121v620v95q0 27 -2 55.5t-1 57zM290 1577q1 12 6 22.5t12 18.5t11 12 l203 137q4 4 17.5 13.5t30 14.5t35 3t34.5 -22q18 -23 19 -41.5t-6 -31.5t-19 -23l-21 -15l-209 -104q-6 -4 -19 -11.5t-28.5 -10.5t-31 -1t-25.5 14q-10 13 -9 25z" />
<glyph unicode="&#xca;" d="M62 1257.5q-1 -28.5 1.5 -58.5t2.5 -56v-94v-625v-121q0 -41 -2.5 -81t2.5 -79q4 -31 16 -59.5t35 -46.5q41 -35 93 -36t101 -1h359h79q40 0 76 16q25 12 43.5 36t-0.5 52q-20 31 -58 41.5t-73 10.5h-207q-29 0 -59.5 -1t-60 1t-57 11t-50.5 30q-23 23 -31 53.5t-11 63 t-1 65.5t2 61q0 33 -1 67t4 66.5t20.5 60.5t48.5 46q27 12 52.5 14t53.5 2h138h90q16 0 40.5 4.5t47 13.5t38 24.5t15.5 37.5q0 23 -15.5 37t-38 23.5t-47 13.5t-40.5 4h-90h-138q-29 0 -54.5 2t-51.5 14q-35 20 -50.5 50t-19.5 65t-3 72t1 69q0 39 13.5 73t46.5 56 q25 18 50 22.5t54 4.5h256q23 0 43 -1t41 3q16 2 40.5 10.5t43 20.5t26 30.5t-7.5 40.5q-16 27 -44.5 38.5t-62.5 14.5t-68 2t-60 -1h-230h-84q-31 0 -64.5 1t-61.5 -3q-70 -10 -105 -72q-14 -25 -19.5 -52.5t-6.5 -56zM191.5 1609.5q5.5 26.5 27.5 45.5l152 125 q23 18 55.5 18t54.5 -18l156 -127q23 -18 28 -45t-12 -47q-16 -18 -42.5 -18.5t-49.5 16.5l-80 65q-23 18 -55.5 18t-54.5 -18l-76 -61q-23 -18 -49.5 -18.5t-42.5 20.5q-17 18 -11.5 44.5z" />
<glyph unicode="&#xcb;" d="M76 222q-2 -40 2 -81q4 -29 16 -57.5t37 -46.5q39 -35 92 -36t103 -1h358h79q40 0 77 16q25 12 43 36t0 52q-20 31 -59.5 41.5t-71.5 10.5h-207q-29 0 -59.5 -2t-61.5 1t-58.5 11t-48.5 31q-23 23 -32 53.5t-11 63t0 65.5t2 61q0 33 -1 67t4.5 66.5t20.5 60.5t48 46 q25 12 50.5 14t54.5 2h137h92q16 0 41 4.5t47.5 13.5t37.5 23.5t15 36.5q0 23 -15 38t-37.5 24.5t-47.5 13.5t-41 4h-92h-137q-29 0 -54.5 2t-50.5 14q-35 20 -50 50t-20.5 65t-3.5 72t2 69q0 39 13.5 73t44.5 56q25 18 51.5 22.5t54.5 4.5h256q23 0 43.5 -1t40.5 3 q16 2 41 10.5t43.5 20.5t25.5 30.5t-7 40.5q-16 27 -45 38.5t-63 14.5t-67.5 1t-60.5 -2h-229h-84q-31 0 -64.5 2t-64.5 -2q-33 -4 -59.5 -22.5t-43.5 -49.5q-14 -25 -19 -52.5t-6 -56t0 -58.5t1 -56v-94v-625v-121q0 -41 -2 -81zM182 1683q0 39 24.5 69t63.5 38 q37 6 71 -13.5t48 -56.5q12 -37 -1 -73.5t-48 -55.5q-35 -20 -74 -12t-61 39q-23 24 -23 65zM580 1683q0 39 25.5 69t62.5 38q39 6 73.5 -13.5t46.5 -56.5q14 -37 0 -73.5t-49 -55.5q-35 -20 -72.5 -12t-62.5 39q-24 30 -24 65z" />
<glyph unicode="&#xcc;" horiz-adv-x="456" d="M49 1716.5q2 18.5 21 40.5q14 18 31.5 21.5t34 -3t29.5 -16.5t17 -14l207 -137l9 -10q7 -7 12.5 -18t5.5 -22.5t-8 -23.5q-10 -14 -25.5 -16t-31 1t-30 10t-20.5 11l-207 107q-10 4 -21.5 13t-18.5 23.5t-5 33zM133 125v86v506v506v92q0 20 7 44.5t20.5 44t33 32 t44.5 10.5q27 -2 44 -15.5t28.5 -34t16.5 -44t5 -43.5v-885v-299q0 -23 -6.5 -47.5t-18.5 -46t-30.5 -35.5t-45.5 -14q-25 0 -43 14t-30.5 35.5t-18.5 46t-6 47.5z" />
<glyph unicode="&#xcd;" horiz-adv-x="419" d="M21.5 1578q1.5 11 6.5 20.5t12 17.5t9 12l205 137q4 2 17.5 11.5t30.5 15.5t35.5 3t35.5 -23q16 -20 17 -38t-7 -32t-20.5 -24.5t-20.5 -16.5l-205 -100q-6 -4 -19.5 -11.5t-28.5 -10.5t-30.5 -1t-27.5 16q-11 13 -9.5 24zM104 131v86v504v504v94q2 20 9.5 43.5t20.5 43 t32.5 32t44.5 10.5t43 -15.5t29.5 -34t16.5 -43t5 -42.5v-883v-299q0 -23 -6 -47.5t-18.5 -46t-32 -35.5t-43.5 -14q-25 0 -44.5 14t-31.5 35.5t-18.5 46t-6.5 47.5z" />
<glyph unicode="&#xce;" horiz-adv-x="829" d="M14 1587q2 12 9.5 21.5t15.5 16.5t12 9l211 125q4 2 17.5 10.5t30 13.5t33.5 1t32 -25q16 -23 16 -41t-8 -32.5t-20.5 -23.5t-18.5 -13l-219 -88q-6 -2 -20.5 -7.5t-30 -8.5t-30.5 -1t-24 17q-8 14 -6 26zM317 129v86v506v504v92q0 20 7.5 44.5t20.5 44t33.5 32 t45.5 10.5q27 -2 44 -15.5t28.5 -34t16.5 -44t5 -43.5v-883v-299q0 -23 -6 -47.5t-18.5 -46t-31 -35.5t-44.5 -14q-25 0 -44.5 14t-31.5 35.5t-18.5 46t-6.5 47.5zM457 1715.5q0 17.5 16 37.5q16 18 35.5 21.5t36 -3t30 -14.5t17.5 -10l201 -137q4 -4 11 -13.5t11 -19.5 t4 -21.5t-8 -19.5q-10 -14 -24.5 -16t-29 1t-27.5 10t-19 11l-211 98q-6 8 -17.5 18.5t-18.5 25t-7 32z" />
<glyph unicode="&#xcf;" horiz-adv-x="622" d="M12 1665q0 37 24.5 65.5t63.5 38.5q37 4 70 -15t47 -52q14 -37 -1 -75t-48 -56t-71 -11t-66 35q-19 27 -19 70zM223 131v86v504v502v94q0 20 7.5 43.5t20.5 43t32.5 32t46.5 10.5q25 -2 43 -15.5t28.5 -34t15.5 -43t5 -42.5v-883v-297q0 -23 -6 -47.5t-18.5 -46 t-31 -35.5t-42.5 -14q-27 0 -45.5 14t-30.5 35.5t-18.5 46t-6.5 47.5zM403 1665q0 37 25 65.5t64 38.5q37 4 69.5 -15t46.5 -52q14 -37 2 -75t-45 -56q-37 -18 -75.5 -11t-61.5 35q-10 14 -17.5 32t-7.5 38z" />
<glyph unicode="&#xd1;" horiz-adv-x="1056" d="M74 158v954v162q0 25 4 53.5t14 53t29.5 41t50.5 16.5t57.5 -14.5t48 -36t38 -48t28.5 -51.5q23 -41 44.5 -84t41.5 -86l246 -485q14 -29 28.5 -58.5t30.5 -58.5q6 -12 13.5 -24.5t17.5 -20.5q16 -10 22.5 4t8.5 27q2 12 1 26.5t-1 26.5v489v218q0 25 3 55.5t14 57 t30.5 45t52.5 18.5q47 0 68.5 -37t27.5 -87t4 -102.5t-2 -83.5v-964q0 -25 -3 -51.5t-13 -51t-28.5 -42t-47.5 -19.5q-31 -4 -58.5 9.5t-50 36t-40 49t-29.5 50.5l-107 209l-106 209l-178 357q-4 8 -12.5 21t-17.5 20.5t-17 4.5t-13 -24q-4 -16 -4 -30v-29v-203v-504 q0 -25 -2 -53.5t-11 -54t-25.5 -44t-47.5 -22.5q-33 -6 -54 8.5t-33.5 39t-17.5 54t-5 54.5zM227 1640.5q0 14.5 7.5 30t19.5 29.5t22 22t17.5 10.5t17.5 6.5q25 10 56 14q57 8 114 -14q41 -18 78 -51q20 -16 44 -28.5t50 -14.5q14 0 27 4l25 8q10 6 18 13t18 13q37 27 76 0 q2 0 4 -2t4 -2q29 -27 15 -65q-4 -18 -15 -29q-6 -10 -15 -16t-19 -15q-47 -31 -101.5 -39t-107.5 9q-51 18 -97 53q-18 16 -36.5 28.5t-40.5 16.5q-25 6 -52 -8q-10 -4 -16 -7t-16 -5q-20 -6 -42 -5.5t-38 17.5q-17 12 -17 26.5zM342 1608l8 4z" />
<glyph unicode="&#xd2;" horiz-adv-x="1007" d="M44 855q1 -48 1 -95v-199q0 -68 2 -134.5t23 -131.5q41 -127 140 -207t232 -96q63 -8 129 -2t126.5 25.5t113.5 56.5t92 90q39 51 57.5 108.5t24.5 115.5t5 118.5t-1 122.5q0 80 1 160.5t-1 162.5q0 63 -14 128t-43 122t-72 106.5t-100 82.5q-55 31 -121 46t-133.5 13 t-132 -20.5t-117.5 -55.5q-51 -35 -89 -83t-63.5 -103.5t-40 -115.5t-18.5 -120q-2 -47 -1 -95zM245 861q-1 87 15 167t62.5 139.5t138.5 75.5q66 10 134.5 -3t115.5 -62q45 -47 63.5 -114t13.5 -132q-2 -98 -1 -196.5t1 -198.5q0 -53 1.5 -105.5t-19.5 -103.5 q-25 -57 -72 -91t-106 -44t-126 -3t-120 43q-37 27 -57.5 61t-29.5 73t-11 80.5t-2 82.5v175q0 69 -1 156zM333 1714.5q1 18.5 19 40.5q14 20 32.5 22.5t36 -3t31 -15.5t17.5 -14l205 -135q2 -4 9 -12.5t12 -18.5t5 -22.5t-8 -24.5q-10 -12 -25.5 -14t-30.5 1t-28.5 10 t-19.5 11l-209 105l-21 15q-12 9 -19 22.5t-6 32z" />
<glyph unicode="&#xd3;" horiz-adv-x="1007" d="M39 852q-2 47 2 94q2 61 16.5 121.5t41 116t64.5 102.5t89 82q53 37 116.5 55.5t131 19.5t133 -14.5t121.5 -46.5q57 -33 99 -81t69.5 -105t42 -120.5t14.5 -127.5q2 -80 1 -160.5t-1 -160.5q0 -59 1 -120t-6 -119t-24.5 -115.5t-54.5 -108.5q-39 -53 -92 -90 t-113.5 -56.5t-126 -24.5t-129.5 3q-131 16 -229.5 95t-138.5 206q-23 66 -24 131.5t-1 132.5v197q0 47 -2 94zM237 859q1 -87 1 -157v-172q0 -41 2 -82.5t12 -79.5t30.5 -73t57.5 -59q51 -37 117.5 -44.5t128.5 3.5q59 10 105 43.5t69 91.5q20 49 20 101v106q0 98 -2 196 t2 197q2 63 -16.5 129.5t-61.5 114.5q-47 49 -114.5 62t-132.5 3q-92 -16 -138.5 -74.5t-63.5 -138.5t-16 -167zM331.5 1573.5q14.5 23.5 24.5 30.5l201 135q6 4 18.5 14t30 15.5t34.5 3t34 -22.5q16 -23 17 -41t-6 -31.5t-18.5 -22.5t-19.5 -16l-207 -104q-6 -4 -20 -10 t-29.5 -9.5t-31 -1t-25.5 14.5q-17 22 -2.5 45.5z" />
<glyph unicode="&#xd4;" horiz-adv-x="1007" d="M39 850q2 -47 2 -94v-199q0 -68 1 -133.5t21 -130.5q41 -127 139.5 -206t231.5 -95q63 -8 129 -3t126.5 25.5t113.5 56t92 91.5q37 51 54.5 107.5t24.5 114.5t6 118.5t-1 120.5q0 80 1 160.5t-1 160.5q-2 63 -16.5 127t-42 122t-69.5 106.5t-99 80.5q-55 31 -121 46.5 t-132.5 13.5t-131 -20.5t-117.5 -55.5q-51 -35 -89 -82t-63.5 -102.5t-40 -115.5t-16.5 -120q-4 -47 -2 -94zM237 857q-1 87 16 166t62 137.5t138 74.5q66 10 133 -3t114 -63q45 -47 63.5 -112.5t16.5 -128.5q-4 -98 -3 -196.5t1 -199.5q0 -51 1 -104t-19 -102 q-23 -57 -70 -91t-106 -45q-59 -10 -126 -2.5t-118 43.5q-37 27 -57.5 61t-30.5 72.5t-12 79.5t-2 82v172q0 72 -1 159zM275.5 1579q5.5 27 27.5 45l150 121q23 20 54.5 20t53.5 -20l154 -123q23 -18 28 -46t-10 -44q-16 -20 -43.5 -20.5t-50.5 18.5l-78 63 q-23 18 -54.5 18.5t-53.5 -18.5l-76 -61q-23 -18 -48.5 -17t-41.5 19q-17 18 -11.5 45z" />
<glyph unicode="&#xd5;" horiz-adv-x="1007" d="M28 856q-1 47 3 94q8 123 57 238t154 186q53 37 117.5 55.5t132 20.5t133 -13.5t120.5 -47.5q57 -33 100.5 -81t71 -105.5t42 -122t16.5 -128.5q2 -82 0 -162.5t-2 -160.5q0 -61 1 -122t-5 -119t-24.5 -115.5t-55.5 -108.5q-41 -55 -93.5 -91t-112.5 -56.5t-125.5 -25.5 t-129.5 3q-133 16 -232.5 95t-140.5 208q-23 66 -24.5 131.5t-1.5 132.5v201q0 47 -1 94zM188 1638.5q0 14.5 7.5 29.5t20.5 29.5t24 22.5q10 10 16 13l18 6q12 6 26.5 9t31.5 7q59 6 114 -18q45 -16 80 -51q23 -16 45.5 -28.5t51.5 -15.5q23 0 51 15q10 4 18 12t19 12 q39 25 77 2q2 -2 4.5 -3t4.5 -3q16 -12 18 -30.5t-4 -34.5q-4 -20 -14 -29q-6 -10 -16.5 -17t-20.5 -14q-47 -33 -102.5 -41t-108.5 11q-27 8 -51.5 22.5t-46.5 30.5q-18 16 -37 28.5t-43 16.5q-23 6 -52 -8q-8 -4 -16 -7l-16 -6q-23 -8 -44.5 -6t-39.5 19q-15 12 -15 26.5z M228 863q1 -87 1 -158v-173q0 -41 2 -82.5t12.5 -80.5t31 -73t57.5 -60q51 -39 118.5 -45.5t127.5 4.5q59 10 106 43.5t70 91.5q23 49 21.5 102t-1.5 107q0 98 -2 197.5t2 197.5q2 63 -16.5 129.5t-61.5 114.5q-47 51 -115.5 64t-134.5 3q-94 -16 -139 -75.5t-62.5 -139.5 t-16.5 -167zM305 1606l8 4zM973 956q0 -2 2 -2q-2 0 -2 2zM975 952v2v-2z" />
<glyph unicode="&#xd6;" horiz-adv-x="1007" d="M35 850q2 -47 2 -94v-199q0 -68 1 -133.5t23 -130.5q41 -127 139.5 -206t229.5 -95q63 -8 129 -2t126 25.5t113.5 56.5t92.5 90q37 51 55.5 107.5t24.5 114.5t5 118.5t-1 120.5q0 80 1 160.5t-1 162.5q0 63 -14.5 127t-42 121t-69.5 105.5t-99 80.5q-55 31 -121 46.5 t-133.5 14.5t-132 -19.5t-117.5 -55.5q-102 -72 -152.5 -186.5t-56.5 -235.5q-4 -47 -2 -94zM201 1657q0 39 25.5 68.5t64.5 35.5q37 6 70.5 -13t46.5 -56q14 -35 -0.5 -72t-49.5 -57q-33 -16 -70.5 -9t-62.5 37q-24 29 -24 66zM234.5 857q-1.5 87 15 166t61.5 138.5 t138 75.5q66 10 134 -3t115 -63q43 -47 61.5 -113.5t18.5 -129.5q-4 -98 -3 -196.5t1 -199.5v-103q0 -52 -20 -103q-23 -57 -69 -90t-105 -43q-61 -10 -128 -4t-118 42q-37 27 -57.5 61t-29.5 72.5t-11 80.5t-2 83v172q0 70 -1.5 157zM598 1657q0 39 24.5 68.5t61.5 35.5 q39 6 73 -13t46 -56q14 -35 1 -72t-48 -57q-35 -16 -73 -9t-62 37q-12 12 -17.5 30t-5.5 36z" />
<glyph unicode="&#xd8;" horiz-adv-x="1007" d="M40 852q-1 47 1 94q8 123 57 237.5t154 186.5q98 66 223 75t234 -36l24 55q25 53 69 79t83 9q37 -16 47 -66t-12 -104l-46 -98q55 -70 82 -158t29 -178q2 -82 1 -162.5t-1 -160.5q0 -61 1 -122t-5 -119t-24.5 -115.5t-55.5 -108.5q-41 -55 -93 -91t-113.5 -56.5 t-127 -25.5t-129.5 3q-61 6 -125 33l-20 -46q-25 -53 -69 -78.5t-81 -9.5q-39 16 -49 66.5t15 105.5l36 84q-53 63 -79 148q-20 66 -22.5 131t-2.5 133v201q0 47 -1 94zM241 859q1 -87 1 -159v-172q0 -37 1 -74.5t9 -72.5l375 844q-41 16 -85 19t-85 -3 q-92 -16 -138.5 -75.5t-62.5 -139.5t-15 -167zM393 203q47 -16 98.5 -18.5t98.5 5.5q59 10 105 44t71 92q20 49 19 102t-1 107q0 98 -1 197t3 198q0 29 -3 60.5t-11 62.5zM985 948v2v-2z" />
<glyph unicode="&#xd9;" horiz-adv-x="1046" d="M50 607.5q-3 -99.5 5 -199.5q10 -123 76 -221.5t180 -145.5q57 -25 124 -34t134.5 -4t131 26.5t116.5 58.5q104 76 148 195q18 51 23 103t5 106v6v567v229q0 35 -9 67t-34 56q-35 37 -75.5 25t-63.5 -53q-23 -45 -21.5 -102.5t1.5 -108.5v-269v-276q0 -45 2 -96.5 t-2.5 -102.5t-21.5 -96t-56 -78q-47 -39 -108.5 -49t-121.5 -4q-59 4 -112.5 29.5t-83.5 78.5q-27 43 -30 90.5t-3 94.5v213v512v58q0 32 -5 60.5t-19.5 53t-45.5 39.5q-25 10 -45 5t-36.5 -19.5t-28 -35t-15.5 -40.5q-6 -20 -6 -40v-40v-461q0 -98 -3 -197.5zM339 1708 q1 18 17 41q16 20 35 22.5t35 -3t29.5 -15.5t17.5 -14l203 -135q8 -6 22.5 -30t-2.5 -46q-10 -12 -25.5 -14.5t-30.5 1t-28.5 10.5t-19.5 11l-209 102q-8 6 -19.5 15.5t-18.5 23t-6 31.5z" />
<glyph unicode="&#xda;" horiz-adv-x="1046" d="M55 604q2 98 2 197v459q0 20 1 39.5t5 39.5q6 20 17.5 41t29 35.5t38 19.5t42.5 -8q29 -12 43.5 -36.5t19.5 -54t5 -60.5v-57v-510v-209q0 -49 4 -95.5t29 -89.5q31 -53 83 -78.5t111 -29.5q59 -6 121 4t109 49q39 33 56 78t21.5 95t2.5 101.5t-2 96.5v274v269 q0 49 -2.5 106t22.5 102q23 41 64 53.5t75 -24.5q23 -25 32 -56.5t9 -64.5v-231v-563v-7q0 -53 -4 -104t-22 -102q-47 -119 -148 -195q-53 -37 -116.5 -57.5t-129 -25.5t-132 4t-126.5 34q-115 47 -178 144.5t-74 220.5q-10 98 -8 196zM343 1543q1 11 6 22.5t11.5 19.5 t10.5 12l202 134q4 4 17.5 14t30 15t34 3t33.5 -22q16 -23 17.5 -40.5t-6 -31.5t-19.5 -23l-21 -16l-204 -102q-6 -4 -19.5 -11.5t-29 -10.5t-30 -1t-24.5 15q-10 12 -9 23z" />
<glyph unicode="&#xdb;" horiz-adv-x="1046" d="M54 601q-3 -99 7 -198q10 -121 75 -218t179 -144q57 -25 124 -35t133.5 -5t129 26.5t115.5 58.5q104 76 148 195q18 51 22 102t4 104v7v563v229q0 33 -8 65.5t-33 57.5q-35 35 -75.5 22.5t-63.5 -53.5q-23 -45 -20.5 -101t2.5 -108v-266v-276q0 -45 2 -96.5t-3.5 -100.5 t-22.5 -94t-56 -78q-47 -39 -107.5 -49t-120.5 -4q-59 4 -111 29.5t-85 78.5q-25 43 -29 89.5t-4 93.5v211v510q0 27 1 57.5t-4 60t-19.5 53t-45.5 37.5q-25 12 -45 7t-36.5 -19t-27.5 -34.5t-16 -41.5q-6 -20 -6 -40v-40v-458q0 -99 -3 -198zM290 1572.5q5 26.5 27 45.5 l150 121q23 18 54.5 18t53.5 -18l154 -125q23 -16 28 -44t-12 -44q-16 -20 -42.5 -20.5t-49.5 18.5l-78 63q-23 18 -54.5 18.5t-53.5 -18.5l-74 -61q-23 -18 -49.5 -17.5t-42.5 19.5q-16 18 -11 44.5z" />
<glyph unicode="&#xdc;" horiz-adv-x="1046" d="M66.5 603q-3.5 -99 5.5 -197q10 -123 74.5 -220.5t181.5 -144.5q57 -25 122.5 -34t132 -4t129 26.5t115.5 58.5q53 35 89 85t59 110q20 49 24.5 101t4.5 105v7v563v229q0 33 -8.5 65.5t-32.5 57.5q-35 35 -76 22.5t-64 -53.5q-23 -45 -21.5 -102t1.5 -107v-266v-276 q0 -45 2 -96.5t-2 -101.5t-21.5 -94t-56.5 -77q-47 -39 -108.5 -49t-118.5 -6q-59 4 -111.5 30.5t-85.5 79.5q-27 41 -30 88.5t-3 94.5v211v510v57q0 31 -5 60.5t-19.5 53t-42.5 37.5q-25 10 -45.5 6.5t-38 -18t-28.5 -35t-15 -41.5q-4 -20 -4 -40v-42v-456q0 -99 -3.5 -198 zM233 1651q0 39 25 67.5t61 36.5q39 4 72 -14.5t45 -54.5q14 -35 1 -72t-48 -55q-33 -18 -70.5 -11.5t-62.5 37.5q-23 29 -23 66zM627 1651q0 39 24.5 67.5t61.5 36.5q39 4 71.5 -14.5t46.5 -54.5q12 -35 -1 -72t-48 -55t-71.5 -11.5t-61.5 37.5q-22 25 -22 66z" />
<glyph unicode="&#xdd;" horiz-adv-x="1067" d="M26.5 1352.5q-8.5 21.5 2.5 46.5q12 25 31.5 34t43 7t46 -11.5t38.5 -23.5q41 -41 74 -94.5t66 -100.5t64.5 -96t64.5 -98q20 -29 52 -46.5t66 5.5q18 12 30.5 31.5t27.5 35.5q35 55 72 111l73 111q16 25 34.5 55.5t41.5 58t50.5 46t62.5 18.5q31 0 57.5 -21.5 t22.5 -56.5q-2 -23 -21 -51q-18 -29 -37.5 -55.5t-38.5 -55.5l-209 -319q-35 -53 -59.5 -106.5t-36.5 -114.5q-10 -51 -10 -103v-104v-267q0 -16 1 -32.5t-1 -32.5q-2 -23 -11.5 -47.5t-24.5 -43t-36.5 -27.5t-46.5 -1q-33 8 -49 31.5t-23.5 54.5t-7.5 63v60v272 q0 59 -3 114.5t-19 115.5q-16 53 -42 97t-55 89q-68 104 -135 205.5t-135 204.5q-12 20 -20.5 41.5zM360.5 1568.5q14.5 22.5 22.5 30.5l201 134q4 4 16 13t28.5 15t35 3t34.5 -21q16 -23 17.5 -40t-6 -31.5t-19.5 -23.5l-20 -16l-205 -100q-6 -4 -19.5 -11.5t-29 -10.5 t-29.5 -1t-25 15q-16 22 -1.5 44.5z" />
<glyph unicode="&#xdf;" horiz-adv-x="1038" d="M35 61v1055v33q0 31 10 78t39 94t82 82t141 41h2q20 0 31 2l117 8q43 4 84 0q39 0 86 -10q41 -8 92 -31q47 -23 86 -65q10 -12 18 -24.5t15 -27.5q8 -14 12 -27.5t8 -27.5t4 -27.5t2 -25.5v-27q0 -12 -2 -28q-6 -25 -16 -56q-12 -25 -29 -53q-18 -23 -37.5 -40t-36.5 -30 q-37 -25 -67 -43q-35 -16 -53 -30q-10 -10 -18.5 -17.5t-14.5 -13.5q-10 -12 -12 -27q-4 -8 -5 -16v-19q0 -18 7 -32q4 -10 22 -29q14 -14 41 -31q23 -16 51.5 -31.5t61.5 -31.5q16 -8 33.5 -17.5t33.5 -19.5q18 -10 36 -21.5t36 -27.5q18 -14 35.5 -32.5t34.5 -45.5 q8 -12 13 -25.5t9 -27.5q10 -35 10 -58q2 -16 0 -30q0 -18 -2 -29q-4 -16 -7 -29.5t-9 -25.5q-20 -49 -57 -86q-29 -35 -66 -62q-18 -12 -35.5 -23.5t-36.5 -21.5q-16 -10 -39 -20q-4 -2 -9 -4t-11 -4h-2l-4 -3q-2 0 -4 -1t-4 -1q-6 -4 -15 -4q-16 -4 -26.5 -5t-22.5 -5h-19 q-9 0 -20 -2q-37 -4 -71 -4h-72q-4 0 -26.5 2t-49.5 12.5t-48.5 30.5t-21.5 57t23 55.5t51 28.5q33 10 74 13h65q33 0 62 4q8 2 16 2h17q16 4 20 4q2 0 3 1t-1 1h2q4 0 13 4q16 8 26 12q53 31 84 64q18 23 21 33q4 4 4 12v4v6q0 14 -6 23q-8 14 -25 26q-10 8 -21.5 15.5 t-23.5 15.5t-27 15l-30 16q-31 16 -65 33.5t-69 39.5q-33 23 -71 58q-35 35 -60 84q-27 53 -26 104q-2 14 -1 26.5t1 24.5q2 12 4 25.5t6 28.5q8 27 20.5 51t30.5 47q31 37 72 63q37 27 67 43q14 10 27.5 17.5t24.5 15.5q25 16 28 27q4 4 6.5 8t2.5 14q0 4 1 7.5t-1 7.5v16 q-4 8 -5.5 13t-5.5 10q-4 4 -9 8t-15 8t-20.5 7t-22.5 7q-29 6 -56 6h-55h-4l-166 -12q-25 -2 -39 -13t-21 -26.5t-9.5 -29t-2.5 -17.5v-1096q0 -59 -29.5 -99t-70.5 -40t-69.5 40t-28.5 99z" />
<glyph unicode="&#xe0;" horiz-adv-x="862" d="M56 286.5q5 -63.5 34 -114.5q29 -57 80 -94t113 -55q41 -10 87 -16.5t91 -4.5q39 0 80 7t71 32q16 8 21.5 5t15.5 -13q16 -16 38 -25.5t44 -5.5q23 2 38 16.5t24.5 35t13.5 43t4 40.5q2 49 1 97.5t-1 97.5q0 59 2 118.5t-4 118.5q4 96 -41 186.5t-135 135.5 q-82 43 -184.5 43t-188.5 -35q-41 -16 -81 -44t-58 -69q-16 -35 1 -60.5t56 -29.5q25 0 45.5 6.5t39 16.5t36.5 21.5t41 21.5q51 23 108.5 20.5t100.5 -43.5q31 -31 47 -69q6 -16 16.5 -47t-6.5 -48q-10 -8 -29.5 -0.5t-31.5 11.5q-29 8 -55.5 9t-55.5 3q-53 2 -108.5 -7 t-105.5 -32.5t-89 -60.5t-59 -92q-21 -56 -16 -119.5zM213 299q2 20 10 39q14 37 43 58.5t64 33.5t72.5 14t72.5 -2q61 -4 108.5 -39.5t55.5 -101.5q4 -16 1 -32.5t-7 -32.5q-12 -29 -32.5 -45.5t-45.5 -26.5t-52.5 -13.5t-53.5 -3.5q-31 0 -67 5.5t-67.5 17.5t-57.5 32.5 t-38 55.5q-8 21 -6 41zM297 1264.5q-2 15.5 6 31t33 27.5q23 12 40 7t29.5 -17.5t19.5 -25.5t11 -19l129 -201l7 -36q5 -26 -21 -40q-14 -8 -27.5 -4t-26 13.5t-21.5 20.5t-13 19l-146 172q-6 8 -12 22.5t-8 30z" />
<glyph unicode="&#xe1;" horiz-adv-x="862" d="M35 290.5q-6 65.5 16 123.5q20 55 60.5 93t90.5 61.5t107.5 33.5t112.5 8q29 -2 56.5 -4t56.5 -8q12 -4 31.5 -11t31.5 3q14 12 5 44t-17 48q-16 45 -49 72q-43 41 -101.5 44t-111.5 -22q-23 -10 -41.5 -21.5t-37 -21.5t-40 -17t-45.5 -5q-41 2 -57.5 29.5t-0.5 62.5 q18 41 58.5 69.5t81.5 45.5q88 35 192.5 34.5t190.5 -43.5q90 -45 137 -138t43 -191q4 -59 2 -121t-2 -121q0 -51 1 -100.5t-1 -98.5q0 -18 -4 -41.5t-13.5 -44t-24.5 -36t-40 -17.5q-20 -2 -43 6t-39 25q-10 12 -16.5 15t-22.5 -5q-33 -25 -74 -33t-82 -8q-90 -4 -182 23 q-61 18 -113.5 55t-82.5 94q-27 53 -33 118.5zM201 262q12 -35 37.5 -56.5t59.5 -33.5t69.5 -17t66.5 -5q51 -2 54.5 -1t-17 1t-51.5 1t-48.5 1t-8 0t70.5 -2q27 0 55.5 3t55 13t47 27.5t31.5 46.5q12 29 8 67q-10 66 -57.5 101.5t-110.5 44.5q-35 2 -74 0t-74.5 -14.5 t-65.5 -35t-44 -59.5q-16 -43 -4 -82zM274.5 1032.5q4.5 26.5 8.5 36.5l131 205q2 6 10 19.5t20.5 25.5t30 17t39.5 -7q25 -14 33 -29.5t7 -31t-7 -29.5t-12 -22l-148 -177q-4 -6 -14.5 -18t-22.5 -21.5t-26.5 -13.5t-28.5 4q-25 15 -20.5 41.5z" />
<glyph unicode="&#xe2;" horiz-adv-x="862" d="M49 288.5q6 -63.5 33 -116.5q29 -55 81 -92t111 -55q43 -12 89.5 -17.5t91.5 -5.5q41 0 80.5 9t72.5 32q14 8 21.5 5t17.5 -15q14 -16 36 -24.5t44 -6.5q23 2 38 17.5t24.5 36t13.5 44t4 41.5q2 47 1 96.5t-1 96.5q0 59 2 119.5t-2 119.5q2 49 -9.5 97.5t-34 91.5 t-56 77.5t-76.5 57.5q-86 43 -188.5 43t-188.5 -35q-41 -16 -81 -43.5t-58 -68.5q-16 -35 1 -61.5t56 -29.5q25 -2 45.5 4.5t38.5 16.5t36.5 21.5t41.5 21.5q51 25 109.5 22.5t99.5 -43.5q31 -31 49 -71q6 -16 16 -47t-6 -45q-10 -10 -29.5 -2t-31.5 12q-29 6 -55.5 8 t-55.5 2q-53 2 -109.5 -7t-106.5 -32.5t-90 -60.5t-58 -92q-23 -58 -17 -121.5zM201 1087.5q6 26.5 28 42.5l144 121q23 16 54.5 16.5t53.5 -16.5l150 -123q23 -18 28 -43.5t-12 -44.5q-16 -20 -41.5 -20t-48.5 18l-76 64q-23 16 -54.5 16t-53.5 -16l-72 -62 q-23 -16 -48.5 -16t-41.5 18q-16 19 -10 45.5zM207 301.5q2 20.5 10 40.5q14 35 43 57.5t63.5 33.5t73.5 14.5t74 -1.5q61 -6 108.5 -41.5t57.5 -99.5q0 -18 -1 -33.5t-9 -31.5q-20 -55 -75.5 -74t-109.5 -16q-61 2 -70.5 2t8 0t48.5 -1t51.5 -1t17.5 -1.5t-55 1.5 q-31 0 -65.5 5t-67.5 17t-58.5 32.5t-37.5 55.5q-8 21 -6 41.5z" />
<glyph unicode="&#xe3;" horiz-adv-x="862" d="M48 286.5q-5 63.5 15 119.5q18 55 58.5 92t89.5 60.5t105.5 32.5t109.5 7q29 -2 56.5 -3t56.5 -9q12 -4 30.5 -11.5t28.5 0.5q16 16 6 47t-16 48q-10 18 -21.5 36.5t-27.5 32.5q-41 41 -98.5 43t-108.5 -20q-41 -20 -77 -44t-85 -22q-39 4 -55.5 30t0.5 60q16 41 56 69 t79 44q86 35 188.5 35t188.5 -43q88 -45 133 -135t41 -187q4 -59 3 -118.5t-1 -118.5v-195q0 -18 -4 -40.5t-13.5 -43t-26 -35t-38.5 -16.5q-20 -4 -43 5t-35 26q-10 10 -17.5 13t-21.5 -5q-33 -25 -74 -32t-79 -7q-43 -2 -89.5 4t-89.5 17q-59 18 -110 55t-82 94 q-27 51 -32 114.5zM121 1137.5q0 15.5 7 31t19.5 27.5t22.5 21q10 10 17.5 13l17.5 7q14 4 27.5 7t27.5 5q29 4 57.5 0t55.5 -14q41 -20 78 -51q20 -16 42.5 -28.5t51.5 -12.5q25 0 47 12q10 4 18 11.5t19 13.5q37 25 76 0q4 0 4 -1t4 -3q29 -27 14 -66q-2 -8 -5 -14l-7 -15 q-16 -16 -37 -26q-47 -31 -100.5 -40t-106.5 9q-49 14 -94 53q-18 14 -36.5 26.5t-41.5 16.5q-25 2 -49 -8q-8 -4 -15.5 -7l-17.5 -7q-20 -6 -41.5 -4t-40.5 16q-14 12 -14 27.5zM205 299q-2 -20 4 -41q12 -35 37.5 -55.5t58.5 -32.5t69 -17.5t66 -5.5q53 0 107.5 16.5 t75.5 72.5q12 29 8 65q-8 66 -55.5 101.5t-108.5 39.5q-35 4 -73 2t-72.5 -14t-63.5 -33.5t-43 -58.5q-8 -19 -10 -39zM233 1106q2 0 3.5 1t3.5 1h2q-5 0 -9 -2zM801 565v2v-2z" />
<glyph unicode="&#xe4;" horiz-adv-x="862" d="M54 289.5q5 -62.5 32 -115.5q29 -57 81 -93t112 -54q90 -25 178 -23q41 0 81 8t72 31q14 8 20.5 5t16.5 -13q14 -16 37 -24.5t43 -6.5q23 2 38 16.5t24.5 35t13.5 44t4 41.5q2 47 1 96.5t-1 96.5q0 59 2 118.5t-2 118.5q2 49 -8.5 97.5t-34 91.5t-57 76.5t-76.5 56.5 q-84 43 -186.5 44t-188.5 -34q-39 -16 -79 -44t-58 -68q-16 -35 1 -63t54 -28q25 -2 46.5 4.5t40 16.5t36.5 21.5t41 21.5q49 23 107.5 20.5t99.5 -43.5q29 -27 49 -69q6 -16 15 -47t-5 -45q-10 -10 -29.5 -2t-31.5 12q-29 6 -55.5 8t-55.5 2q-53 2 -109.5 -7t-105.5 -31.5 t-89 -60.5t-58 -93q-21 -56 -16 -118.5zM137 1157q0 37 24.5 65.5t59.5 34.5q37 8 70 -11t47 -54q10 -35 -3 -71t-44 -54q-35 -18 -72 -11t-59 36q-23 32 -23 65zM211 301.5q2 20.5 10 40.5q14 35 43 57.5t63.5 33.5t72.5 13.5t73 -0.5q61 -6 107.5 -41.5t56.5 -99.5 q4 -37 -8 -65q-23 -55 -77 -72.5t-108 -17.5q-59 2 -68 2t7 0t47 -1t51.5 -1t17.5 -1.5t-55 1.5q-31 2 -65.5 6t-67 16t-58.5 32.5t-38 55.5q-6 21 -4 41.5zM520 1157q0 37 24.5 65.5t61.5 34.5q37 8 70 -11t45 -54t-1 -71t-46 -54t-70 -11t-59 36q-25 34 -25 65z" />
<glyph unicode="&#xe5;" horiz-adv-x="862" d="M58 286q-1 12 -1 24q0 49 17 96q20 55 59 93t88 60.5t105.5 31.5t109.5 9q57 0 111 -12q14 -4 33.5 -11.5t31.5 3.5q8 6 8.5 18t-3 25.5t-9.5 27t-8 21.5q-16 39 -49 67q-43 43 -100 44h-5q-55 0 -104 -21q-23 -8 -41 -19.5t-36.5 -21.5t-39 -17.5t-45.5 -5.5 q-39 4 -56 29q-9 13 -9 29q0 15 8 32q16 41 57 70t82 45q84 34 184 34h6q103 -1 187 -42q88 -47 134 -137q41 -80 41 -166q0 -11 -1 -23q5 -49 5 -101v-17q-1 -61 -1 -121v-193q0 -18 -4 -40.5t-14.5 -43t-26.5 -36t-39 -17.5q-6 -1 -12 -1q-15 0 -31 7q-23 10 -37 25 q-10 10 -16 13t-21 -5q-33 -23 -72.5 -31t-80.5 -8q-15 -1 -30 -1q-30 0 -62 5q-47 8 -88 19q-59 16 -110.5 53t-80.5 94q-29 54 -34 116zM221 258q12 -35 38 -56.5t58.5 -33.5t68.5 -16.5t67 -4.5q49 -2 52 -2t-17.5 0t-52.5 1t-48 1t-6 0h72q9 -1 18 0q43 0 88 16 q55 19 76 73q4 14 7 31q1 7 1 15q0 9 -2 17q-4 66 -53 102.5t-109 42.5q-14 1 -28 1q-22 0 -45 -2q-39 -3 -74 -14t-63.5 -33.5t-43.5 -57.5q-9 -21 -9 -44q0 -18 5 -36z" />
<glyph unicode="&#xe6;" horiz-adv-x="1490" d="M21.5 283.5q-5.5 62.5 17.5 119.5q18 55 58 93.5t89.5 61t105.5 32.5t109 8q29 -2 56.5 -4t56.5 -10q12 -4 30.5 -11.5t30.5 2.5q16 14 6 46t-16 49q-18 39 -49 69q-41 41 -99.5 43t-109.5 -20q-23 -10 -41 -21.5t-36.5 -21.5t-39 -17.5t-45.5 -5.5q-39 2 -56 30t-1 62 q16 41 57 68t80 43q86 35 189.5 35t189.5 -41q37 -20 66.5 -48t52.5 -63q35 45 81 79t103 52q61 20 127 21.5t126.5 -16t112.5 -53.5t91 -89q37 -53 58.5 -114.5t31.5 -124.5q4 -29 6 -61t-22 -52q-20 -16 -52 -14t-55 2h-33h-94h-262h-42q-19 0 -42 -4q-31 -4 -52.5 -20.5 t-25.5 -45.5v-12q0 -14 6 -23q10 -23 21.5 -43t28.5 -37q20 -23 44.5 -39t51.5 -26q49 -23 102 -23t105 17q39 12 71.5 30.5t67.5 40.5q14 12 33.5 24.5t40 18.5t40 1t31.5 -27l2 -2q4 -10 3 -10.5t-3 4.5q16 -39 -3 -68t-50 -55q-61 -55 -135 -82q-74 -25 -159 -29t-163 12 q-100 25 -172 88q-18 16 -32.5 12.5t-24.5 -8.5q2 0 -6 -4q-18 -14 -34.5 -24t-29.5 -21q-14 -10 -28 -18q-4 0 -6 -2q-33 -23 -74 -31t-80 -8q-45 -2 -91 3t-89 19q-59 16 -111.5 53.5t-81.5 94.5q-28 53 -33.5 115.5zM184 256q12 -35 39 -56.5t58.5 -33.5t67.5 -17.5 t67 -5.5q27 0 55.5 4.5t53 13.5t45 26.5t30.5 45.5q12 29 8 66q-8 66 -56 100.5t-110 40.5q-35 4 -72.5 2t-72.5 -14t-63.5 -33.5t-43.5 -58.5q-16 -45 -6 -80zM805 586q10 -18 37 -19h45q23 -2 43 -2h43h190q14 0 34 1t36 6.5t26.5 15.5t8.5 33q-4 35 -31 67.5t-55 52.5 q-47 31 -106.5 37t-112.5 -10q-49 -16 -86 -49t-62 -76l-4 -4v-2q-14 -28 -6 -51zM811 637v2l4 4z" />
<glyph unicode="&#xe7;" horiz-adv-x="833" d="M48 455q-1 80 20.5 156.5t65.5 141t109.5 110.5t151.5 63q127 23 244 -35q47 -25 96 -65t68 -93q8 -23 2 -44t-21.5 -36.5t-37 -21.5t-44.5 2q-20 6 -35.5 20.5t-28.5 29.5t-27.5 30.5t-32.5 27.5q-63 39 -140.5 28t-130.5 -64q-66 -66 -83 -158t5 -180 q20 -76 71.5 -135.5t133.5 -69.5q53 -8 105.5 9t87.5 58q12 14 28.5 32t35 29t39 13t38.5 -16q35 -29 27.5 -72t-29.5 -76q-10 -18 -31.5 -34.5t-38.5 -28.5q-23 -16 -49 -30.5t-53 -25.5q-43 -16 -86 -18l-29 -68q0 -10 6 -14q37 -27 74 -26q27 0 49 12q10 6 18.5 12 t18.5 12q37 27 76 0q2 0 6 -6q16 -10 18.5 -28.5t-2.5 -34.5q-6 -14 -14 -29q-18 -18 -35 -27q-47 -31 -100 -40t-107 10q-51 14 -96 53q-8 4 -22 18q-18 12 -21.5 25.5t-1.5 24.5q0 6 4 10q2 2 2 4l10 27l21 51l8 18q-72 14 -133 53t-108 99q-49 63 -75 140t-27 157z M768 287q0 2 2 1t-2 -1z" />
<glyph unicode="&#xe8;" horiz-adv-x="923" d="M46 393q9 -76 36 -143q35 -92 106.5 -153.5t169.5 -82.5q78 -16 162 -12t160 29q39 12 72.5 33.5t62.5 48.5q33 27 51.5 57.5t1.5 71.5q2 -4 3 -8l1 -3l-4 11q-12 25 -31.5 29.5t-40 -1.5t-41 -18t-34.5 -25q-35 -23 -67.5 -41t-71.5 -30q-51 -16 -104.5 -16.5 t-104.5 22.5q-27 10 -51.5 27.5t-45.5 37.5q-16 16 -27 37t-24 43q-16 41 8.5 68.5t65.5 34.5q23 4 42 3t42 -1h264h94h33q25 0 55.5 -2t51.5 14q25 20 22.5 53t-6.5 60q-10 66 -30.5 127t-59.5 114t-92 89t-113.5 54.5t-126 17.5t-127.5 -21q-61 -20 -110.5 -59.5 t-86 -89.5t-61 -108.5t-37.5 -119.5q-16 -72 -7 -148zM245 615.5q3 15.5 7 25.5t0 1t0 -1q27 45 64.5 79t86.5 50q53 16 114 11t108 -38q29 -20 55.5 -53t30.5 -67q2 -23 -8.5 -34t-28 -15.5t-35.5 -5.5t-33 -1h-192h-43q-20 0 -43 2h-45q-27 0 -37 19q-4 12 -1 27.5z M335 1275q-1 15 6 30.5t32 29.5q23 12 40 7t29.5 -17t20.5 -25.5t10 -19.5l131 -203q2 -6 5 -16t3 -21.5t-5 -22.5t-17 -18q-14 -8 -28.5 -4t-27 13.5t-21.5 20.5t-13 20l-146 174q-6 8 -12 22.5t-7 29.5z" />
<glyph unicode="&#xe9;" horiz-adv-x="923" d="M40 393q-9 76 5 148q27 123 100.5 227t196.5 145q61 20 125.5 21.5t125 -16t113 -53.5t91.5 -89q37 -53 59.5 -114.5t30.5 -126.5q4 -27 6 -59t-23 -52q-20 -16 -51 -14t-53 2h-33h-94h-264h-42q-19 0 -40 -4q-41 -4 -65.5 -32t-8.5 -69q12 -23 22.5 -43t28.5 -37 q20 -20 44 -37.5t53 -27.5q49 -20 101 -21.5t103 15.5q41 12 74 31.5t66 41.5q14 10 34.5 22.5t42 18.5t40 1t30.5 -29q4 -10 3 -10.5t-2 2.5l-2 7q-1 3 1 1q18 -41 -1 -71t-50 -58q-61 -55 -135 -80q-76 -27 -160 -31t-162 12q-94 23 -165.5 83.5t-108.5 152.5 q-27 67 -36 143zM237.5 613.5q-4.5 -15.5 2.5 -25.5q10 -20 36 -21h43q23 -2 43 -2h44h190q14 0 33.5 1t36 5t26.5 15.5t8 34.5q-4 35 -29.5 67.5t-54.5 50.5q-47 33 -107 39t-114 -10q-49 -16 -87 -50t-62 -79q-4 -10 -8.5 -25.5zM327 1035.5q5 25.5 9 35.5l127 203 q2 6 10 19.5t21.5 25.5t30 17t38.5 -7q25 -14 33 -29.5t7 -31t-7 -28.5t-12 -21l-146 -175q-4 -8 -14 -19t-22.5 -20.5t-27 -13.5t-28.5 4q-24 15 -19 40.5z" />
<glyph unicode="&#xea;" horiz-adv-x="923" d="M40 395q9 -76 36 -145q35 -92 106.5 -152.5t169.5 -83.5q78 -16 162 -12t160 31q74 23 135 82q33 27 51.5 57.5t1.5 71.5q-2 2 0 -1t3 -6l1 -4l-4 11q-12 25 -31.5 30t-40 -1.5t-41 -18.5t-34.5 -25q-35 -23 -68 -41t-72 -30q-51 -16 -104 -16.5t-104 22.5 q-27 10 -51.5 26.5t-43.5 36.5q-18 18 -29.5 39t-21.5 43q-18 41 6.5 69t65.5 34q20 4 40.5 3t43.5 -1h264h94h33q25 0 55.5 -2t50.5 14q25 20 23 52t-6 61q-10 66 -30.5 127t-59.5 114t-92.5 89t-113.5 54.5t-126 17.5t-127 -21t-110.5 -59.5t-86 -89.5t-61.5 -108.5 t-37 -119.5q-16 -72 -7 -148zM234.5 1093.5q5.5 26.5 27.5 45.5l150 121q23 16 53.5 16t52.5 -16l152 -123q23 -20 27.5 -46t-9.5 -47q-16 -18 -43 -18t-49 18l-78 64q-23 18 -53.5 18t-52.5 -18l-76 -61q-23 -16 -48.5 -16.5t-41.5 18.5q-17 18 -11.5 44.5zM239 617.5 q3 15.5 7 25.5q27 45 64.5 79t86.5 50q53 16 113.5 10t107.5 -39q29 -18 55.5 -51t31.5 -67q2 -23 -8.5 -34t-28 -15.5t-36 -5.5t-32.5 -1h-194h-42q-22 0 -45 2h-43q-27 0 -36 19q-4 12 -1 27.5z" />
<glyph unicode="&#xeb;" horiz-adv-x="923" d="M33 393q8 -76 37 -143q35 -92 106.5 -152.5t167.5 -81.5q78 -16 162 -12t160 29q39 12 71.5 33.5t63.5 48.5t50 57.5t1 71.5q-2 2 0 -1t3 -6l1 -4l-4 11q-12 25 -31.5 30t-40 -1.5t-40 -18.5t-33.5 -25q-35 -23 -68 -41t-72 -30q-51 -16 -104 -16.5t-103 22.5 q-55 23 -96 63q-16 18 -27.5 39t-23.5 41q-16 43 8.5 69.5t65.5 33.5q20 4 40.5 3t43.5 -1h262h94h33q23 0 54.5 -2t49.5 14q25 20 23 53t-6 60q-8 66 -30 126t-60 113q-37 53 -90.5 89t-113 54.5t-125 17.5t-126.5 -22q-61 -20 -110.5 -59t-86.5 -88t-62.5 -107.5 t-37.5 -119.5q-14 -72 -6 -148zM164 1165q0 37 24.5 66t61.5 35q37 8 69.5 -11.5t47.5 -54.5q12 -37 -1.5 -72.5t-46.5 -54.5q-35 -18 -71.5 -10t-61.5 37q-22 28 -22 65zM232.5 615.5q3.5 15.5 7.5 25.5q4 8 0 -1t0 1q27 45 63.5 79t87.5 50q53 16 112.5 10t106.5 -39 q29 -18 54.5 -51t29.5 -67q2 -23 -8 -34t-26.5 -15.5t-35 -5.5t-32.5 -1h-193h-43q-20 0 -43 2h-43q-27 0 -37 19q-4 12 -0.5 27.5zM553 1165q0 37 24.5 66t61.5 35q37 8 70.5 -11.5t44.5 -54.5q14 -37 0.5 -72.5t-47.5 -54.5q-31 -18 -70 -10t-62 37q-22 28 -22 65z" />
<glyph unicode="&#xec;" horiz-adv-x="370" d="M56 1270.5q-1 15.5 7.5 31t32.5 27.5q23 12 40.5 7t29.5 -16t20.5 -24.5t10.5 -19.5l129 -203q2 -4 5 -14t3 -21.5t-4 -22.5t-17 -18q-14 -8 -28.5 -4t-26.5 13.5t-21.5 20.5t-13.5 17l-147 175q-6 8 -12.5 22t-7.5 29.5zM96 139v146v493q0 20 1 39t7 39t19.5 39.5t32 31 t40 12.5t44.5 -15t34 -38t15 -46.5t4 -51.5v-51v-516v-82q0 -23 -6 -48t-19.5 -46.5t-33 -35t-46.5 -9.5q-25 2 -42 16.5t-28.5 35t-16.5 44t-5 43.5z" />
<glyph unicode="&#xed;" horiz-adv-x="362" d="M43 1037.5q0 11.5 3 21.5t5 14l129 203q2 6 10.5 19.5t20.5 24.5t29.5 16t40.5 -7q25 -12 33 -27.5t6.5 -31t-8.5 -29.5l-11 -22l-147 -175q-4 -6 -13.5 -17t-22 -20.5t-26.5 -13.5t-29 4q-12 6 -16 17.5t-4 23zM84 139v146v493q0 20 1 39t5 39q6 20 20.5 39.5t32 31 t39 12.5t43.5 -15q23 -16 34 -38t15.5 -46.5t4.5 -51.5v-51v-516v-82q0 -23 -6.5 -48t-19.5 -46.5t-32.5 -35t-46.5 -9.5q-25 2 -41 16.5t-27.5 35t-16.5 44t-5 43.5z" />
<glyph unicode="&#xee;" horiz-adv-x="524" d="M45 1090.5q6 25.5 29 44.5l145 118q23 16 53.5 16.5t53.5 -16.5l149 -120q23 -20 28 -46t-11 -45q-16 -18 -42 -18t-49 18l-75 62q-23 18 -53.5 18t-53.5 -18l-74 -60q-23 -18 -48 -18t-42 18q-16 21 -10 46.5zM176 145v146v489q0 20 1 40t5 38q6 20 20.5 40t33 31t39 12 t42.5 -15q23 -16 34 -38t16.5 -46.5t5.5 -50.5v-52v-512v-82q0 -23 -6.5 -48t-19.5 -45.5t-33.5 -34t-47.5 -11.5q-25 2 -41 16.5t-27.5 35t-16.5 44t-5 43.5z" />
<glyph unicode="&#xef;" horiz-adv-x="620" d="M14 1161q0 37 24.5 65.5t61.5 35.5q37 8 70 -11.5t45 -54.5t-1 -70.5t-46 -54.5q-33 -18 -71 -11t-60 38q-23 26 -23 63zM213 137v148v491q0 18 1 36.5t7 37.5q6 20 19.5 40.5t31 32t39 12.5t43.5 -13q23 -16 34 -39t15.5 -47.5t4.5 -51.5v-51v-512v-84q0 -23 -6.5 -47 t-18.5 -44.5t-31.5 -34t-46.5 -11.5q-25 2 -42 16.5t-28.5 35t-16.5 43t-5 42.5zM401 1161q0 37 25 65.5t59 35.5q39 8 71 -11.5t46 -54.5q12 -35 -1 -70.5t-46 -54.5q-35 -18 -72 -11t-61 38q-10 12 -15.5 29.5t-5.5 33.5z" />
<glyph unicode="&#xf1;" horiz-adv-x="894" d="M48 152.5q1 19.5 1 40.5v206v383q0 35 8.5 70t34.5 59q16 16 40 21.5t46 -4.5q20 -10 29.5 -26.5t23.5 -33.5q18 -23 36 -9.5t34 24.5q25 20 61 35q45 16 90.5 17t90.5 -5q61 -6 116.5 -34t96.5 -73q63 -68 86.5 -156.5t23.5 -181.5q4 -61 2 -123.5t-2 -125.5 q0 -41 2 -89.5t-18 -89.5q-16 -31 -48 -46t-67 1q-25 12 -38 31.5t-19 43.5t-7 49.5t-1 47.5v209q0 70 -6.5 142.5t-45.5 132.5q-29 41 -72.5 63.5t-92.5 22.5q-47 0 -87 -16.5t-71 -51.5q-20 -27 -30.5 -57.5t-14.5 -63.5t-5 -65.5t-1 -63.5v-211q0 -29 1 -61.5t-4 -64 t-20.5 -57.5t-48.5 -38q-27 -10 -48.5 -2t-36.5 26.5t-25.5 41t-12.5 45.5q-2 18 -1 37.5zM133 1133.5q0 15.5 8.5 31t19.5 27.5t21 20q12 10 18.5 13.5t16.5 7.5q12 4 26.5 7t28.5 5q53 8 111 -14q41 -18 78 -51q20 -16 42.5 -28.5t49.5 -12.5t51 12q10 4 17.5 11t17.5 16 q37 23 76 0q4 -4 8 -7q27 -27 14 -65q-2 -10 -14 -27q-6 -10 -15.5 -16t-19.5 -12q-47 -31 -100 -39t-107 8q-27 8 -49 22.5t-45 30.5q-16 14 -34.5 26.5t-43.5 16.5t-49 -6q-8 -4 -15 -8t-16 -6q-45 -16 -82 10q-14 12 -14 27.5zM248 1102q4 4 6 4l-2 -2q-2 0 -2 -1t-2 -1z " />
<glyph unicode="&#xf2;" d="M51 543q-18 -119 18.5 -236t127.5 -201q47 -43 104 -69.5t117.5 -34.5t123 3t117.5 44q96 55 152.5 145.5t72 195t-10 208.5t-93.5 186q-41 49 -93 84t-111.5 52.5t-122 15.5t-123.5 -25q-117 -45 -190 -146t-89 -222zM219 477q0 66 23.5 128.5t70.5 109.5q31 31 71 45 t81 14t81 -14.5t72 -40.5q-4 4 -8 5t-8 5q57 -43 86 -113.5t29 -147.5t-29 -147.5t-86 -115.5q4 0 4 2q-33 -25 -71.5 -36t-78.5 -10t-78 17.5t-67 46.5q-51 49 -72.5 115.5t-19.5 136.5zM331 1264.5q-1 15.5 6 31t32 27.5q20 12 37.5 7t31 -17.5t20.5 -25.5t11 -19 l127 -201q4 -8 9 -34.5t-19 -41.5q-14 -8 -28.5 -4t-27 13.5t-22.5 21.5t-14 18l-146 172q-4 8 -10 22.5t-7 30z" />
<glyph unicode="&#xf3;" d="M43 545q16 123 90 224t191 146q123 45 245.5 9.5t206.5 -136.5q27 -35 26 -31.5t-11.5 15.5t-19.5 23.5t5 -7.5q68 -84 94.5 -188t11 -208.5t-72.5 -196t-154 -146.5q-57 -33 -118.5 -44t-123 -3t-118.5 36t-105 71q-92 84 -128.5 200.5t-18.5 235.5zM213 479 q-4 -70 19.5 -136.5t70.5 -117.5q31 -31 69 -46t77.5 -17t78.5 10t74 37q-2 -2 -4 -2q57 43 85 114.5t28 148.5t-28 148.5t-85 114.5q4 -4 8 -5t8 -5q-33 27 -73.5 41t-81.5 14t-81 -14t-71 -45q-47 -47 -70.5 -110.5t-23.5 -129.5zM324 1037.5q0 11.5 3 21.5t5 14l129 203 q2 6 10 19.5t20.5 24.5t30 16t39.5 -7q25 -12 32 -27.5t6 -31t-7 -29.5t-10 -22l-148 -175q-4 -6 -13 -17t-21.5 -20.5t-27 -13.5t-28.5 4q-12 6 -16 17.5t-4 23z" />
<glyph unicode="&#xf4;" d="M43 545q-16 -119 20.5 -235.5t124.5 -200.5q47 -43 104.5 -70t119 -35t124 3t117.5 44q96 53 152.5 144.5t72 195t-11 207.5t-94.5 188q-14 16 -5 6t19.5 -22t12.5 -15t-27 31q-41 49 -93 83t-111.5 51.5t-122 15.5t-123.5 -25q-117 -43 -189 -144t-90 -222zM211 477 q4 66 26.5 128.5t69.5 109.5q31 31 70 46t81 15t82 -14t72 -41q-4 4 -8 5t-8 5q57 -43 85 -114.5t28 -147.5t-28 -147.5t-85 -114.5q2 0 4 2q-33 -25 -73 -37t-79.5 -10t-77.5 17.5t-67 45.5q-49 49 -71.5 116.5t-20.5 135.5zM231.5 1085.5q6.5 26.5 28.5 42.5l146 119 q23 18 53 18.5t53 -18.5l150 -121q23 -18 27.5 -44.5t-11.5 -43.5q-16 -18 -42 -19t-48 17l-76 62q-23 18 -53.5 18t-52.5 -18l-72 -58q-23 -20 -49.5 -19t-42.5 19q-17 19 -10.5 45.5z" />
<glyph unicode="&#xf5;" d="M39 545q16 123 90 224t190 146q123 45 246 9.5t207 -136.5q-6 8 -8 9.5t8 -9.5q18 -23 22.5 -27.5t1.5 -1.5t-10.5 12t-13.5 17q68 -84 94.5 -188t11 -208.5t-72.5 -196t-154 -146.5q-57 -33 -118.5 -44t-123 -3t-119 36t-104.5 71q-90 84 -127.5 200.5t-19.5 235.5z M151 1144.5q-1 14.5 7 30t20 29t23 21.5q10 10 16 12l19 6q12 6 26 9t29 5q55 6 112 -16q43 -18 80 -49q20 -16 43 -29.5t49 -13.5q14 0 26.5 4t23.5 8q10 6 18 13.5t19 13.5q39 27 75 0q4 -2 5 -3t6 -3q14 -12 16 -29.5t-2 -34.5q-4 -8 -7 -15t-7 -16q-18 -18 -37 -26 q-47 -31 -100.5 -40t-106.5 9q-27 8 -50.5 21.5t-45.5 29.5q-18 16 -36 28.5t-42 16.5q-23 6 -51 -8l-15 -7q-6 -3 -16 -7q-23 -6 -44.5 -4t-37.5 18q-14 12 -15 26.5zM209 479q-4 -70 19.5 -136.5t70.5 -117.5q31 -31 69 -46t77.5 -17t79.5 10t73 37q-2 -2 -4 -2 q57 43 86 114.5t29 148.5t-29 148.5t-86 114.5q4 -4 8 -5t8 -5q-33 27 -73.5 41t-81.5 14t-81 -14t-71 -45q-47 -47 -70.5 -110.5t-23.5 -129.5zM266 1112q2 0 2 1t2 1l2 2q-2 -2 -3 -2t-3 -2z" />
<glyph unicode="&#xf6;" d="M45 543q-16 -119 20.5 -236t124.5 -201q47 -43 104.5 -69.5t119 -34.5t123 3t118.5 44q96 55 152.5 145.5t72 195t-11 208.5t-94.5 186q-14 16 -5 6t19.5 -22t12.5 -15t-27 31q-41 49 -93 84t-110.5 52.5t-121 15.5t-123.5 -25q-117 -45 -190 -146t-91 -222zM166 1159 q0 37 24.5 65.5t61.5 37.5q37 4 69.5 -14.5t45.5 -53.5q14 -35 0.5 -72t-48.5 -55q-33 -16 -69.5 -9t-61.5 36q-22 28 -22 65zM213 477q2 66 24.5 128.5t69.5 109.5q31 31 71 45t81 14t81 -14.5t72 -40.5q-4 4 -7 5t-7 5q57 -43 85 -113.5t28 -147.5t-28 -147.5t-85 -115.5 q2 0 4 2q-33 -25 -73 -36t-79.5 -10t-77.5 17.5t-67 46.5q-47 49 -70.5 115.5t-21.5 136.5zM553 1159q0 37 24.5 65.5t61.5 37.5q35 4 68.5 -14.5t46.5 -53.5q12 -35 -1.5 -72t-45.5 -55q-33 -16 -71 -9t-61 36q-22 28 -22 65z" />
<glyph unicode="&#xf8;" d="M49 541q16 121 89 221t190 145q63 25 128.5 26t127.5 -20l4 9q12 31 36.5 49t51.5 18q16 0 24 -4q33 -16 39 -53t-8 -74l-10 -20q14 -14 27.5 -26.5t25.5 -29.5q-2 4 -4 5t-4 4l8 -9q25 -31 27 -30q-2 0 -10 10l-17 20q68 -82 93.5 -186t10 -207.5t-71.5 -194 t-151 -143.5q-72 -41 -149.5 -48t-149.5 15l-16 -32q-14 -31 -37.5 -50.5t-50.5 -19.5q-6 0 -12 2l-13 4q-29 14 -39 53q-6 35 11 72l16 41l-20 21q-88 82 -125 198.5t-21 233.5zM215 475q0 -59 16.5 -119.5t55.5 -107.5l231 518q-55 12 -110.5 0t-96.5 -55 q-47 -45 -69.5 -107.5t-26.5 -128.5zM422 164q47 -8 93 3t87 40l-2 -2q49 39 77 98t34 125t-9.5 131.5t-52.5 116.5z" />
<glyph unicode="&#xf9;" horiz-adv-x="946" d="M59 597q-2 -73 2 -146q0 -90 24 -179.5t89 -156.5q43 -47 105 -76q23 -10 53 -23.5t53 -11.5q18 4 37.5 0t38.5 -2q55 0 102 16q23 8 47.5 21.5t40.5 34.5q2 2 7.5 8t11.5 12t11 7t9 -5q10 -23 17.5 -42t27.5 -36q23 -18 45.5 -17t41 12.5t32.5 30.5t20 42q6 25 7.5 49.5 t1.5 48.5v138v165v179q0 49 3 106t-20 105q-12 27 -32.5 42t-43 16t-45 -10.5t-38.5 -35.5q-16 -25 -19.5 -52.5t-3.5 -56.5v-245q0 -49 -2 -105.5t-16.5 -107t-47 -88t-94.5 -48.5q-41 -8 -83 -2t-76 31q-35 23 -55.5 55.5t-32 70.5t-15.5 78t-4 77v188q0 43 3 90t-11 90 q-16 41 -53 60.5t-76 -0.5q-25 -14 -37 -36t-17.5 -46.5t-5.5 -49.5v-51q0 -71 -2 -144zM335 1260.5q-1 15.5 7 31t33 27.5q20 12 37.5 7t30 -17.5t20.5 -25.5t10 -19l129 -199q2 -4 5 -14.5t3 -21.5t-5 -22.5t-17 -17.5q-14 -8 -27.5 -4t-26 13.5t-21.5 20.5t-13 17 l-146 172l-11 23q-7 14 -8 29.5z" />
<glyph unicode="&#xfa;" horiz-adv-x="946" d="M60 597q1 73 1 144v51q0 26 5.5 50t17.5 45.5t37 36.5q39 20 75.5 0.5t51.5 -60.5q16 -43 13 -90t-3 -90v-188q0 -37 4 -77t15.5 -78t32 -70.5t52.5 -55.5q37 -25 79 -31t83 2q61 10 94 48t47.5 88.5t16.5 106.5t2 106v245q0 29 4 56.5t21 52.5q14 25 36.5 36t45 10 t43 -16.5t32.5 -41.5q23 -47 20 -104.5t-3 -106.5v-179q0 -41 -1 -83t-1 -82v-138q0 -25 1 -49t-8 -49q-6 -23 -20 -42t-32.5 -30.5t-41 -12.5t-43.5 17q-23 16 -30 36t-19 42q-4 6 -9 5t-10 -7l-11 -12q-5 -6 -7 -8q-16 -20 -39.5 -33.5t-48.5 -22.5q-25 -10 -50.5 -13 t-51.5 -3q-18 -2 -38 2t-38 0q-23 -2 -53.5 11.5t-50.5 23.5q-59 27 -107 76q-63 68 -88 156.5t-25 179.5q-2 73 -1 146zM336 1028q4 27 8 37l127 199q2 6 10 19t21.5 25.5t30 17.5t38.5 -7q25 -12 32 -27.5t6 -31t-7 -29.5t-10 -23l-148 -172q-4 -6 -13 -17t-21.5 -20.5 t-25.5 -13.5t-28 4q-24 12 -20 39z" />
<glyph unicode="&#xfb;" horiz-adv-x="946" d="M67 598q-1 -74 1 -145q0 -92 24.5 -181.5t89.5 -156.5q23 -25 49.5 -43.5t55.5 -32.5q23 -10 53.5 -24.5t52.5 -12.5q18 4 38 0t38 -2q27 2 52.5 4t49.5 12q25 10 49.5 22.5t41.5 33.5q4 6 16 21.5t20 2.5q12 -23 19.5 -43t27.5 -37q23 -16 45.5 -16t41 12.5t33 31.5 t20.5 42q8 23 8 48v50v140v163v181q0 49 4 107.5t-18 105.5q-27 53 -78 58t-84 -46q-16 -25 -19.5 -53.5t-3.5 -57.5v-247q0 -49 -2 -105.5t-16 -107t-48 -88t-96 -48.5q-41 -8 -82.5 -2t-76.5 31q-35 23 -55.5 55.5t-32 70.5t-15.5 79t-4 78v188q0 43 2 91t-12 89 q-16 41 -52 61.5t-77 0.5q-25 -14 -37 -36t-17 -46.5t-5 -49.5v-51q0 -73 -1 -147zM253 1085.5q5 26.5 28 42.5l145 119q23 18 53.5 18.5t52.5 -18.5l150 -121q23 -18 28 -44.5t-12 -43.5q-14 -18 -39.5 -19t-48.5 17l-78 62q-23 18 -53 18t-53 -18l-74 -58q-23 -20 -48 -19 t-40 19q-16 19 -11 45.5z" />
<glyph unicode="&#xfc;" horiz-adv-x="946" d="M61 595q-2 -73 2 -146q0 -92 24 -180.5t89 -157.5q47 -49 107 -76q23 -10 53.5 -23.5t52.5 -11.5q18 2 37.5 -1t38.5 -1q57 0 102 14q25 10 49.5 23.5t40.5 34.5l8 8l10 12q5 6 10 7t9 -5q12 -20 19.5 -41.5t27.5 -38.5q23 -16 45.5 -16t41 12t32.5 31.5t21 42.5 q8 25 8 49v51v137v166v179q0 51 3 108t-20 105q-12 27 -32.5 42t-43 17t-45 -9.5t-38.5 -35.5q-16 -27 -19.5 -54.5t-3.5 -56.5v-248q0 -49 -2 -106t-16.5 -107.5t-47 -87t-94.5 -49.5q-43 -8 -85 -2t-76 33q-35 23 -55.5 55.5t-32 70.5t-15.5 78t-4 77v190q0 43 3 91 t-13 89t-52 61.5t-77 -1.5q-25 -14 -37 -36t-17.5 -46.5t-5.5 -49.5v-51q0 -73 -2 -146zM180 1157q0 37 24.5 66.5t61.5 36.5q37 6 70 -13.5t45 -54.5q14 -35 1 -71t-48 -54q-33 -18 -70 -11t-61 36q-23 28 -23 65zM567 1157q0 37 24.5 66.5t61.5 36.5q35 6 69 -13.5 t46 -54.5t-1 -71t-46 -54t-71 -11t-60 36q-23 28 -23 65z" />
<glyph unicode="&#xfd;" horiz-adv-x="980" d="M47 855.5q0 21.5 8 39.5t25.5 30.5t40.5 16.5q37 6 64.5 -12.5t49 -48t38 -64.5t28.5 -61q31 -59 60.5 -120t58.5 -120q10 -20 22.5 -42.5t34.5 -33.5q16 -8 29.5 -4t25 14.5t19.5 23.5t14 26q29 59 55.5 115.5t53.5 113.5q12 27 25.5 59.5t31 62.5t39 53.5t49.5 33.5 q25 8 48.5 3t41 -19.5t26.5 -36t5 -45.5q-4 -16 -10 -29.5t-12 -28.5l-54 -110l-53 -111q-29 -59 -56.5 -119.5t-56.5 -119.5q-6 -14 -12 -27.5t-14 -26.5q-8 -20 -17.5 -39.5t-19.5 -40.5q-2 -4 -14.5 -25.5t-10.5 -25.5q0 -6 -4 -14t-8 -12q-10 -16 -17.5 -35t-17.5 -37 q-6 -14 -11 -25.5t-11 -23.5q-18 -39 -37 -76t-35 -76q-23 -43 -42 -87t-40 -85q-16 -35 -33.5 -71.5t-44.5 -65.5q-35 -35 -83 -37t-76 41q-16 27 -11.5 53.5t17.5 51.5q57 117 108 229q23 45 47.5 92t36.5 94q16 68 4 129.5t-41 120.5q-59 117 -115.5 230.5t-115.5 230.5 q-4 12 -10 24l-13 25q-10 21 -10 42.5zM352 1042.5q0 12.5 3 22.5t5 16l134 207q2 6 10 19.5t21.5 26t30.5 17.5t40 -8q25 -12 33 -28.5t7 -31.5t-8 -30l-12 -22l-151 -178q-4 -6 -13.5 -18.5t-21.5 -21.5t-27.5 -14.5t-29.5 2.5q-12 6 -16.5 17.5t-4.5 24z" />
<glyph unicode="&#xff;" horiz-adv-x="980" d="M57 842.5q0 -21.5 11 -41.5q6 -12 12 -25.5t12 -23.5q57 -117 113.5 -229.5t113.5 -229.5q29 -59 41.5 -120.5t-4.5 -127.5q-10 -47 -34.5 -93t-47.5 -93q-29 -57 -55 -112.5t-53 -115.5q-12 -25 -17.5 -50t11.5 -52q29 -43 77 -42t80 36q27 29 44.5 65.5t33.5 71.5 q20 41 40 84t42 86q16 39 34.5 76t37.5 76q4 12 10 23t12 26q8 18 16.5 35.5t18.5 35.5q2 4 7 12.5t5 12.5q-2 2 1.5 10t8.5 16.5t9 16.5t4 10l19 39q9 18 18 39q8 12 14 25.5t13 27.5q29 59 56 118.5t56 119.5l105 221q8 12 14 26.5t8 30.5q4 25 -5 45.5t-26.5 35t-41 19.5 t-46.5 -3q-29 -10 -50 -34t-38.5 -53.5t-31 -61.5t-25.5 -58q-27 -57 -53.5 -113.5t-53.5 -116.5q-6 -12 -14 -25t-19.5 -22.5t-24.5 -13.5t-30 4q-23 10 -35 31.5t-22 44.5q-29 59 -58.5 118.5t-58.5 118.5q-14 27 -29.5 61t-37 63.5t-49 48t-64.5 12.5q-23 -4 -40 -16.5 t-25.5 -30t-8.5 -39zM199 1157q0 39 24.5 68.5t61.5 36.5q39 8 72.5 -12.5t45.5 -55.5q12 -37 -1 -74t-48 -55q-33 -18 -70.5 -11t-62.5 38q-22 28 -22 65zM594 1157q0 39 24.5 68.5t61.5 36.5q39 8 72.5 -12.5t46.5 -55.5q14 -37 -0.5 -74t-46.5 -55q-35 -18 -73 -11 t-63 38q-22 28 -22 65z" />
<glyph unicode="&#x152;" horiz-adv-x="1626" d="M34 854q-1 47 1 94q4 61 18.5 121.5t40 116t63.5 102.5t89 82q53 37 116.5 55.5t130 19.5t132 -14.5t120.5 -46.5q16 -8 28.5 -16t25.5 -18q2 2 2 4t2 4q16 29 42.5 47t59.5 25q31 4 63.5 2t63.5 -2h84h227q27 0 60 1t65.5 -2.5t61.5 -14.5t45 -36q14 -23 7 -41 t-25.5 -30.5t-42 -20.5t-39.5 -10q-20 -4 -41 -3t-41 1h-256q-27 0 -53.5 -4t-49.5 -21q-33 -25 -45 -57.5t-12 -71.5q0 -33 -2 -69.5t3 -70.5t19.5 -63.5t49.5 -48.5q27 -14 51 -16t53 -2h135h90q16 0 41 -3t47.5 -12.5t38 -23.5t15.5 -37t-15.5 -38t-38 -24.5t-47 -12.5 t-41.5 -3h-90h-135q-29 0 -53.5 -2t-50.5 -16q-33 -18 -47.5 -46t-19.5 -59.5t-4 -65.5t1 -65q0 -29 -2 -61.5t0 -65t11 -62.5t32 -52q20 -20 48 -29.5t57.5 -11.5t59 -1t58.5 1h205q33 0 71.5 -10.5t57.5 -40.5q20 -29 2 -52.5t-43 -33.5q-37 -16 -77 -17h-79h-354h-99 q-52 0 -94 35q-10 10 -17 18.5t-13 20.5q-78 -59 -175.5 -77.5t-195.5 -6.5q-133 16 -231.5 96t-139.5 207q-20 66 -22 131.5t-2 130.5v199q0 47 -1 94zM232 861q1 -87 1 -156v-173q0 -41 2.5 -82.5t11.5 -80.5t29.5 -73t57.5 -60q53 -37 118.5 -43.5t125.5 4.5 q59 10 106 42.5t72 90.5q20 49 19 102t-1 107q0 98 -1 196.5t1 196.5q4 63 -14.5 129.5t-63.5 114.5q-47 49 -115.5 62t-131.5 1q-92 -16 -137.5 -74.5t-63 -137.5t-16.5 -166z" />
<glyph unicode="&#x153;" horiz-adv-x="1609" d="M41 545q18 121 91 222t190 144q61 23 123.5 25t122 -15.5t111.5 -51t93 -83.5l-8 9l2 -2l6 -7q12 -18 19 -24l6 -6q-2 0 -10.5 10t-14.5 20q8 -10 15.5 -20t13.5 -21q39 57 91 100.5t120 65.5q61 20 125.5 21.5t124 -16t112.5 -53.5t90 -89t58.5 -113.5t31.5 -123.5 q4 -29 6.5 -60t-22.5 -51q-20 -16 -51 -15t-55 1h-33h-92h-263q-20 0 -40.5 1t-42.5 -3q-39 -4 -63 -32t-7 -71q10 -20 21.5 -40.5t27.5 -37.5q20 -20 45 -36.5t49 -28.5q49 -20 102.5 -20.5t104.5 16.5q37 10 71 28.5t66 40.5q14 12 35 24.5t40.5 19t38.5 1t32 -27.5v-2 l4 -11v5q12 -39 -6.5 -67t-48.5 -54q-61 -55 -136 -82q-74 -25 -156.5 -29t-160.5 12q-72 16 -131.5 56.5t-100.5 97.5q-27 -35 -60.5 -66.5t-76.5 -54.5q-55 -33 -116.5 -44t-123 -3t-118.5 35t-105 70q-88 84 -125.5 200.5t-21.5 235.5zM211 477q-4 -68 19.5 -135.5 t70.5 -116.5q31 -31 69 -46t77.5 -17t78.5 10t74 37q-2 -2 -6 -2q57 43 86 111.5t29 144.5v6q0 78 -28 148.5t-87 113.5q4 -4 8 -5t8 -5q-33 27 -72.5 41t-81.5 14t-81 -15.5t-70 -45.5q-47 -47 -70.5 -109.5t-23.5 -128.5zM907 612.5q-2 -14.5 2 -24.5q10 -20 37 -21h43 q23 -2 43.5 -1t42.5 1q47 0 95.5 -1t95.5 1q14 0 32.5 1t35 5.5t26.5 15.5t8 34q-4 35 -29.5 66.5t-54.5 51.5q-47 31 -106.5 36t-112.5 -11q-49 -14 -86 -47t-61 -76l-3 -4l-2 -2q-4 -10 -6 -24.5zM913 637l2 2l3 4q0 -2 -3 -4q0 -2 -2 -2z" />
<glyph unicode="&#x178;" horiz-adv-x="1067" d="M14.5 1355.5q8.5 -22.5 22.5 -40.5q68 -102 134.5 -203.5t133.5 -204.5q31 -47 55.5 -91t40.5 -97q16 -57 19.5 -113.5t3.5 -116.5v-270v-60q0 -32 7 -62.5t23.5 -54.5t49.5 -32q27 -8 47 1t35.5 27.5t25 42t11.5 46.5q2 16 1 32.5t-1 33.5v268v103q0 52 10 104 q12 61 36.5 113.5t59.5 105.5l209 319q18 29 37.5 56.5t38.5 56.5q8 10 14 21.5t8 27.5q4 35 -22.5 55.5t-59.5 20.5q-35 0 -61.5 -18.5t-49 -45t-41 -57.5t-36.5 -55q-35 -55 -72 -110.5t-73 -108.5q-12 -20 -25.5 -39t-32.5 -31q-35 -23 -65.5 -5.5t-51.5 48.5 q-35 47 -66.5 96t-64.5 96t-64.5 101.5t-74.5 91.5q-16 14 -38.5 24.5t-45 12.5t-43 -7.5t-31.5 -33.5q-12 -25 -3.5 -47.5zM225 1657q0 39 24.5 67.5t61.5 34.5t71 -12t46 -53q12 -37 -1 -73t-46 -54q-35 -18 -72 -11t-61 35q-23 29 -23 66zM614 1657q0 39 25 67.5t61 34.5 q37 6 71 -12t46 -53q12 -37 -1 -73t-46 -54q-35 -18 -71.5 -11t-61.5 35q-23 29 -23 66z" />
<glyph unicode="&#x2000;" horiz-adv-x="927" />
<glyph unicode="&#x2001;" horiz-adv-x="1855" />
<glyph unicode="&#x2002;" horiz-adv-x="927" />
<glyph unicode="&#x2003;" horiz-adv-x="1855" />
<glyph unicode="&#x2004;" horiz-adv-x="618" />
<glyph unicode="&#x2005;" horiz-adv-x="462" />
<glyph unicode="&#x2006;" horiz-adv-x="309" />
<glyph unicode="&#x2007;" horiz-adv-x="309" />
<glyph unicode="&#x2008;" horiz-adv-x="231" />
<glyph unicode="&#x2009;" horiz-adv-x="370" />
<glyph unicode="&#x200a;" horiz-adv-x="102" />
<glyph unicode="&#x2010;" horiz-adv-x="980" d="M35 739q0 41 52 71t124 30h502q72 0 123 -30t51 -71t-51.5 -68.5t-122.5 -27.5h-502q-72 0 -124 27.5t-52 68.5z" />
<glyph unicode="&#x2011;" horiz-adv-x="980" d="M35 739q0 41 52 71t124 30h502q72 0 123 -30t51 -71t-51.5 -68.5t-122.5 -27.5h-502q-72 0 -124 27.5t-52 68.5z" />
<glyph unicode="&#x2012;" horiz-adv-x="980" d="M35 739q0 41 52 71t124 30h502q72 0 123 -30t51 -71t-51.5 -68.5t-122.5 -27.5h-502q-72 0 -124 27.5t-52 68.5z" />
<glyph unicode="&#x2013;" horiz-adv-x="1024" d="M35 643v197h895v-197h-895z" />
<glyph unicode="&#x2014;" horiz-adv-x="2048" d="M35 643v197h1919v-197h-1919z" />
<glyph unicode="&#x2019;" horiz-adv-x="456" d="M77 1115q1 15 6 28.5t7 21.5l123 271q0 10 10 28.5t26.5 33.5t40 21.5t52.5 -8.5q35 -16 47 -36.5t10 -41t-12 -39t-18 -30.5l-142 -236q-4 -10 -15 -26.5t-27.5 -28.5t-37 -18t-41.5 6q-18 8 -24 23.5t-5 30.5z" />
<glyph unicode="&#x201c;" horiz-adv-x="733" d="M32 1098.5q1 15.5 6 29t7 21.5l123 270q0 10 10 28.5t26.5 34t40 21.5t52.5 -8q35 -16 47 -36.5t10 -41t-12 -39t-18 -30.5l-142 -236q-4 -10 -15 -26.5t-27.5 -29t-37 -18.5t-41.5 6q-18 8 -24 23.5t-5 31zM337 1098.5q1 15.5 6 29t7 21.5l123 270q0 10 10.5 28.5 t26.5 34t39.5 21.5t52.5 -8q35 -16 47.5 -36.5t10 -41t-12.5 -39t-18 -30.5l-142 -236q-4 -10 -15 -26.5t-27.5 -29t-37 -18.5t-40.5 6q-18 8 -24.5 23.5t-5.5 31z" />
<glyph unicode="&#x201d;" horiz-adv-x="733" d="M32 1098.5q1 15.5 6 29t7 21.5l123 270q0 10 10 28.5t26.5 34t40 21.5t52.5 -8q35 -16 47 -36.5t10 -41t-12 -39t-18 -30.5l-142 -236q-4 -10 -15 -26.5t-27.5 -29t-37 -18.5t-41.5 6q-18 8 -24 23.5t-5 31zM337 1098.5q1 15.5 6 29t7 21.5l123 270q0 10 10.5 28.5 t26.5 34t39.5 21.5t52.5 -8q35 -16 47.5 -36.5t10 -41t-12.5 -39t-18 -30.5l-142 -236q-4 -10 -15 -26.5t-27.5 -29t-37 -18.5t-40.5 6q-18 8 -24.5 23.5t-5.5 31z" />
<glyph unicode="&#x2026;" horiz-adv-x="712" d="M498 98q0 41 28.5 70t69.5 29t69.5 -29t28.5 -70t-28.5 -69.5t-69.5 -28.5t-69.5 28.5t-28.5 69.5zM261 98q0 41 28.5 70t69.5 29t69.5 -29t28.5 -70t-28.5 -69.5t-69.5 -28.5t-69.5 28.5t-28.5 69.5zM23 98q0 41 28.5 70t69.5 29t69.5 -29t28.5 -70t-28.5 -69.5 t-69.5 -28.5t-69.5 28.5t-28.5 69.5z" />
<glyph unicode="&#x202f;" horiz-adv-x="370" />
<glyph unicode="&#x205f;" horiz-adv-x="462" />
<glyph unicode="&#x2122;" horiz-adv-x="2420" d="M1237 129v1167q0 57 29 97.5t70 40.5q43 0 84 -37t59 -94l270 -914q20 -55 44 -55t38 55l277 914q14 57 55 94t82 37t73 -40t32 -98v-1167q0 -55 -32 -95t-73 -40t-70.5 40t-29.5 95v674q0 55 -11.5 58t-25.5 -52l-197 -680q-18 -55 -51 -95t-65 -40q-35 0 -70 40t-49 95 l-203 680q-14 55 -25.5 52t-11.5 -58v-674q0 -55 -28.5 -95t-71.5 -40q-41 0 -70 40t-29 95zM20 1356q0 33 43 56.5t99 23.5h178h252h246h176q59 0 100 -23.5t41 -56.5t-41 -56.5t-100 -23.5h-176q-59 0 -100.5 -40t-41.5 -95v-1000q0 -59 -31.5 -100t-72.5 -41 q-47 0 -79 41t-32 100v1000q0 55 -41 95t-100 40h-178q-55 0 -98.5 23.5t-43.5 56.5z" />
<glyph unicode="&#xe000;" horiz-adv-x="935" d="M0 935h935v-935h-935v935z" />
<glyph unicode="&#xfb01;" horiz-adv-x="1300" d="M978 133v664q0 59 30 100t67 41q41 0 72.5 -41t31.5 -100v-664q0 -53 -31.5 -93t-72.5 -40q-37 0 -67 40t-30 93zM978 1182q0 41 28 68.5t69 27.5t69.5 -27.5t28.5 -68.5t-28.5 -70t-69.5 -29t-69 29t-28 70zM47 846q-2 7 -2 15q0 14 7 29q11 24 28 36q23 14 46.5 16 t43.5 12q29 12 39 36t12 53.5t0 59.5t2 52q14 104 79 181t173 94q26 4 52 4q38 0 74 -10q60 -15 108 -56q29 -25 58 -59q25 -29 25 -62q0 -7 -1 -14q-6 -31 -27 -42t-45.5 -9t-49 14t-40.5 27q-35 31 -73 45q-13 5 -28 5q-27 0 -57 -18q-25 -14 -43 -34.5t-25 -51.5 q-3 -31 -3 -61t3 -59q0 -23 3.5 -44.5t19.5 -37.5q27 -23 68 -25t75 -2h109q16 0 38.5 -3t44 -11t39 -20.5t21.5 -33.5q2 -7 3 -12q0 -9 -6 -18q-9 -14 -24.5 -24.5t-34 -17.5t-32.5 -9q-36 -8 -75 -8h-24q-52 3 -100 3q-45 0 -84 -26q-8 -4 -24.5 -17.5t-16.5 -23.5v-45 v-201v-266q0 -25 1.5 -53.5t-2 -55t-15.5 -49t-37 -35.5q-23 -13 -42 -13q-5 0 -9 1q-23 4 -39 20.5t-27.5 40t-13.5 46.5v67v246v235q0 27 -7 47.5t-19 43.5q-14 23 -32 29.5t-46 13.5q-48 10 -68 55z" />
<glyph unicode="&#xfb02;" horiz-adv-x="1366" d="M958 104v191v997q0 59 28.5 100.5t69.5 41.5t69 -41t28 -101v-997v-12q0 -51 12 -78t27.5 -37t29.5 -10t17 2q33 -4 56 -25.5t23 -54.5t-24.5 -56.5t-61.5 -23.5h-79h-84q-2 0 -19.5 2t-38 11.5t-37 30.5t-16.5 60zM47 846q-2 7 -2 15q0 14 7 29q11 24 28 36 q23 14 46.5 16t43.5 12q29 12 39 36t12 53.5t0 59.5t2 52q14 104 79 181t173 94q26 4 52 4q38 0 74 -10q60 -15 108 -56q29 -25 58 -59q25 -29 25 -62q0 -7 -1 -14q-6 -31 -27 -42t-45.5 -9t-49 14t-40.5 27q-35 31 -73 45q-13 5 -28 5q-27 0 -57 -18q-25 -14 -43 -34.5 t-25 -51.5q-3 -31 -3 -61t3 -59q0 -23 3.5 -44.5t19.5 -37.5q27 -23 68 -25t75 -2h109q16 0 38.5 -3t44 -11t39 -20.5t21.5 -33.5q2 -7 3 -12q0 -9 -6 -18q-9 -14 -24.5 -24.5t-34 -17.5t-32.5 -9q-36 -8 -75 -8h-24q-52 3 -100 3q-45 0 -84 -26q-8 -4 -24.5 -17.5 t-16.5 -23.5v-45v-201v-266q0 -25 1.5 -53.5t-2 -55t-15.5 -49t-37 -35.5q-23 -13 -42 -13q-5 0 -9 1q-23 4 -39 20.5t-27.5 40t-13.5 46.5v67v246v235q0 27 -7 47.5t-19 43.5q-14 23 -32 29.5t-46 13.5q-48 10 -68 55z" />
<glyph unicode="&#xfb03;" horiz-adv-x="2174" d="M1853 133v664q0 59 30 100t67 41q41 0 72.5 -41t31.5 -100v-664q0 -53 -31.5 -93t-72.5 -40q-37 0 -67 40t-30 93zM1853 1182q0 41 28 68.5t69 27.5t69.5 -27.5t28.5 -68.5t-28.5 -70t-69.5 -29t-69 29t-28 70zM921 846q-2 7 -2 15q0 14 7 29q11 24 28 36q23 14 46.5 16 t43.5 12q29 12 39 36t12 53.5t0 59.5t2 52q14 104 79 181t173 94q26 4 52 4q38 0 74 -10q60 -15 108 -56q29 -25 58 -59q25 -29 25 -62q0 -7 -1 -14q-6 -31 -27 -42t-45.5 -9t-49 14t-40.5 27q-35 31 -73 45q-13 5 -28 5q-27 0 -57 -18q-25 -14 -43 -34.5t-25 -51.5 q-3 -31 -3 -61t3 -59q0 -23 3.5 -44.5t19.5 -37.5q27 -23 68 -25t75 -2h109q16 0 38.5 -3t44 -11t39 -20.5t21.5 -33.5q2 -7 3 -12q0 -9 -6 -18q-9 -14 -24.5 -24.5t-34 -17.5t-32.5 -9q-36 -8 -75 -8h-24q-52 3 -100 3q-45 0 -84 -26q-8 -4 -24.5 -17.5t-16.5 -23.5v-45 v-201v-266q0 -25 1.5 -53.5t-2 -55t-15.5 -49t-37 -35.5q-23 -13 -42 -13q-5 0 -9 1q-23 4 -39 20.5t-27.5 40t-13.5 46.5v67v246v235q0 27 -7 47.5t-19 43.5q-14 23 -32 29.5t-46 13.5q-48 10 -68 55zM47 846q-2 7 -2 15q0 14 7 29q11 24 28 36q23 14 46.5 16t43.5 12 q29 12 39 36t12 53.5t0 59.5t2 52q14 104 79 181t173 94q26 4 52 4q38 0 74 -10q60 -15 108 -56q29 -25 58 -59q25 -29 25 -62q0 -7 -1 -14q-6 -31 -27 -42t-45.5 -9t-49 14t-40.5 27q-35 31 -73 45q-13 5 -28 5q-27 0 -57 -18q-25 -14 -43 -34.5t-25 -51.5q-3 -31 -3 -61 t3 -59q0 -23 3.5 -44.5t19.5 -37.5q27 -23 68 -25t75 -2h109q16 0 38.5 -3t44 -11t39 -20.5t21.5 -33.5q2 -7 3 -12q0 -9 -6 -18q-9 -14 -24.5 -24.5t-34 -17.5t-32.5 -9q-36 -8 -75 -8h-24q-52 3 -100 3q-45 0 -84 -26q-8 -4 -24.5 -17.5t-16.5 -23.5v-45v-201v-266 q0 -25 1.5 -53.5t-2 -55t-15.5 -49t-37 -35.5q-23 -13 -42 -13q-5 0 -9 1q-23 4 -39 20.5t-27.5 40t-13.5 46.5v67v246v235q0 27 -7 47.5t-19 43.5q-14 23 -32 29.5t-46 13.5q-48 10 -68 55z" />
<glyph unicode="&#xfb04;" horiz-adv-x="2240" d="M1833 104v191v997q0 59 28.5 100.5t69.5 41.5t69 -41t28 -101v-997v-12q0 -51 12 -78t27.5 -37t29.5 -10t17 2q33 -4 56 -25.5t23 -54.5t-24.5 -56.5t-61.5 -23.5h-79h-84q-2 0 -19.5 2t-38 11.5t-37 30.5t-16.5 60zM921 846q-2 7 -2 15q0 14 7 29q11 24 28 36 q23 14 46.5 16t43.5 12q29 12 39 36t12 53.5t0 59.5t2 52q14 104 79 181t173 94q26 4 52 4q38 0 74 -10q60 -15 108 -56q29 -25 58 -59q25 -29 25 -62q0 -7 -1 -14q-6 -31 -27 -42t-45.5 -9t-49 14t-40.5 27q-35 31 -73 45q-13 5 -28 5q-27 0 -57 -18q-25 -14 -43 -34.5 t-25 -51.5q-3 -31 -3 -61t3 -59q0 -23 3.5 -44.5t19.5 -37.5q27 -23 68 -25t75 -2h109q16 0 38.5 -3t44 -11t39 -20.5t21.5 -33.5q2 -7 3 -12q0 -9 -6 -18q-9 -14 -24.5 -24.5t-34 -17.5t-32.5 -9q-36 -8 -75 -8h-24q-52 3 -100 3q-45 0 -84 -26q-8 -4 -24.5 -17.5 t-16.5 -23.5v-45v-201v-266q0 -25 1.5 -53.5t-2 -55t-15.5 -49t-37 -35.5q-23 -13 -42 -13q-5 0 -9 1q-23 4 -39 20.5t-27.5 40t-13.5 46.5v67v246v235q0 27 -7 47.5t-19 43.5q-14 23 -32 29.5t-46 13.5q-48 10 -68 55zM47 846q-2 7 -2 15q0 14 7 29q11 24 28 36 q23 14 46.5 16t43.5 12q29 12 39 36t12 53.5t0 59.5t2 52q14 104 79 181t173 94q26 4 52 4q38 0 74 -10q60 -15 108 -56q29 -25 58 -59q25 -29 25 -62q0 -7 -1 -14q-6 -31 -27 -42t-45.5 -9t-49 14t-40.5 27q-35 31 -73 45q-13 5 -28 5q-27 0 -57 -18q-25 -14 -43 -34.5 t-25 -51.5q-3 -31 -3 -61t3 -59q0 -23 3.5 -44.5t19.5 -37.5q27 -23 68 -25t75 -2h109q16 0 38.5 -3t44 -11t39 -20.5t21.5 -33.5q2 -7 3 -12q0 -9 -6 -18q-9 -14 -24.5 -24.5t-34 -17.5t-32.5 -9q-36 -8 -75 -8h-24q-52 3 -100 3q-45 0 -84 -26q-8 -4 -24.5 -17.5 t-16.5 -23.5v-45v-201v-266q0 -25 1.5 -53.5t-2 -55t-15.5 -49t-37 -35.5q-23 -13 -42 -13q-5 0 -9 1q-23 4 -39 20.5t-27.5 40t-13.5 46.5v67v246v235q0 27 -7 47.5t-19 43.5q-14 23 -32 29.5t-46 13.5q-48 10 -68 55z" />
</font>
</defs>
</svg>
